/* XPM */
static char *closeO[] = {
/* columns rows colors chars-per-pixel */
"26 62 87 1 ",
"  c #360707",
". c #43090A",
"X c #580C0C",
"o c #630D0D",
"O c #690E0E",
"+ c #720F0F",
"@ c #6F0E10",
"# c #780F11",
"$ c #771010",
"% c #7F1012",
"& c #841112",
"* c #8E1214",
"= c #951315",
"- c #B00D0F",
"; c #B00F11",
": c #B90F11",
"> c #A41516",
", c #AA1617",
"< c #A81518",
"1 c #B31416",
"2 c #B81314",
"3 c #B31618",
"4 c #BC1718",
"5 c #B31A1C",
"6 c #BE1B1C",
"7 c #B92729",
"8 c #B9282A",
"9 c #BC3D3E",
"0 c #C11719",
"q c #C4191A",
"w c #CA1A1B",
"e c #D21B1D",
"r c #DB1B1E",
"t c #E41416",
"y c #E41618",
"u c #ED1719",
"i c #E41A1D",
"p c #EB1C1E",
"a c #E41F21",
"s c #EF1F21",
"d c #F51F22",
"f c #F81F22",
"g c #C13D3E",
"h c #E52123",
"j c #EF2326",
"k c #F02426",
"l c #FC2023",
"z c #E82E30",
"x c #BD3F40",
"c c #BF4345",
"v c #BF4648",
"b c #C04E4F",
"n c #C04F50",
"m c #C35658",
"M c #C35859",
"N c #E64344",
"B c #EA4345",
"V c #E84748",
"C c #E64B4D",
"Z c #E65455",
"A c #E75C5E",
"S c #CA6869",
"D c #EA6D6E",
"F c #D38586",
"G c #D58B8C",
"H c #D69192",
"J c #ED8C8D",
"K c #ED9394",
"L c #DCAAAB",
"P c #DEB1B1",
"I c #EDADAD",
"U c #EDB3B4",
"Y c #E2BEBE",
"T c #EEBFBF",
"R c #C3C3C3",
"E c #EFC0C0",
"W c #E8CFD0",
"Q c #EAD2D2",
"! c #EBD7D8",
"~ c #EBD9D9",
"^ c #F1D3D4",
"/ c #F1D9DA",
"( c #E0E0E0",
") c #ECEBEB",
"_ c #F1EBEC",
"` c #F2F2F2",
"' c #F3F9F9",
/* pixels */
"`````_````````````````````",
"``````````````````)`)`````",
"``````````````````````````",
"``````````````````````````",
"``````````````````````````",
"```)``````````````````````",
"``````````''''''``````````",
"`````````~TUUUUE~`````````",
"```````_^JVhhhhVJ^_```````",
"``````_UVzkddddkzNU_``````",
"``````ICiidllllsiiCI````_`",
"`````^Dtr<wdlldw<rtD^`````",
"`````KBpe$*wlde*#esBK_````",
"`)``_Apffe&%ew%&edduA_````",
"````_Zulllw=@@=wfffuZ_````",
"````_Zullls<..<slffuZ)````",
"````_Zuflfw=@@=wllluZ_````",
"````_Asffe&%ee#&eddsA_````",
"````_JBae$*edde*#raBK_````",
"````_^Dur<wflldw<ryD/`````",
"``````ICaadfflldiiCI'`````",
"``````_UNzsddddkzNU_``````",
"```````_WJNahhsVJW_````_``",
"````````_/TUUUUE/`````````",
"```````_``''''''``_```````",
"``````````````_```````````",
"````````````````````````_`",
"``````````````````````````",
"'``'````''`````'``'`'``'`'",
"((((((((((((((((((((((((((",
"RRRRRRRRRRRRRRRRRRRRRRRRRR",
")`))`))`))`))``)_`__))`))`",
"```'`````````'````````````",
"``````````````````````````",
"_`````````````````````````",
"``````````````````````````",
"``````````````````````````",
"``````````''''''``````````",
"`````````~YPPPPT!`````````",
"``````__WGx5555xFW)```````",
"``````_Px860q0067xP_``````",
"`````'Lv110wwww013vL'`````",
"````_!S;,&>qwww=&,;SQ`````",
"````_Hg2,o@<q0<$o,2xH_``)`",
"````_M2qq<OO<<OO,qq4v)````",
"````_n2wwq>$XX$>qww2v)````",
"```')n2wwwq&  &6wwq2v'````",
"_```)v2wwq=$XX$>qqw5v`'```",
"```')M2wq,OO>>OO>qq2M_````",
"````)Gg3,o+>qq>+o,2gH_````",
"`````QS;,&>0wwq>&,;SQ`````",
"``````Lv314wwww011bL``````",
"``````)Px7600qq679P_``````",
"```````_WFx5555xGQ_```````",
"`````````~YPPPPY!`````````",
"``_`````_'''''''`````````)",
"````````_`````````````````",
"``````````````````````````",
"```````)```````)``````````",
"```````)`'```_`)'``````)``",
"((((((((((((((((((((((W(((",
"RRRRRRRRRRRRRRRRRRRRRRRRRR"
};
