/* XPM */
static char *closeI[] = {
/* columns rows colors chars-per-pixel */
"26 62 155 2 ",
"   c #360707",
".  c #580C0C",
"X  c #590C0C",
"o  c #600D0D",
"O  c #660D0D",
"+  c #690E0E",
"@  c #720F0F",
"#  c #771010",
"$  c #851211",
"%  c #861112",
"&  c #B00E10",
"*  c #B10F11",
"=  c #A11515",
"-  c #A21516",
";  c #A61616",
":  c #A81616",
">  c #AA1617",
",  c #AD1617",
"<  c #B21315",
"1  c #B21416",
"2  c #B31517",
"3  c #B71517",
"4  c #B81012",
"5  c #B91012",
"6  c #B91112",
"7  c #B81517",
"8  c #B91517",
"9  c #B31618",
"0  c #B91618",
"q  c #B2181A",
"w  c #B2191B",
"e  c #B31A1C",
"r  c #B31B1D",
"t  c #BF1819",
"y  c #BF1919",
"u  c #BC1C1E",
"i  c #BD1D1E",
"p  c #BE1D1E",
"a  c #B72628",
"s  c #B82729",
"d  c #B9393B",
"f  c #BE393A",
"g  c #B93B3D",
"h  c #BB3A3C",
"j  c #BE3A3C",
"k  c #BF3B3D",
"l  c #BA3C3D",
"z  c #BC3D3F",
"x  c #C11718",
"c  c #C21719",
"v  c #C01819",
"b  c #C11819",
"n  c #C21819",
"m  c #C31819",
"M  c #C3191A",
"N  c #C41819",
"B  c #C4191A",
"V  c #C5191A",
"C  c #C51A1A",
"Z  c #C81A1B",
"A  c #C91A1B",
"S  c #CA1A1B",
"D  c #CB1A1B",
"F  c #BD3E40",
"G  c #BC4344",
"H  c #BC4345",
"J  c #BC4445",
"K  c #BC4B4C",
"L  c #BC4B4D",
"P  c #BF5254",
"I  c #BF5354",
"U  c #BF5455",
"Y  c #C05556",
"T  c #C56364",
"R  c #C56465",
"E  c #C56466",
"W  c #CD7F80",
"Q  c #B3B3B3",
"!  c #B9B9B9",
"~  c #CE8384",
"^  c #CE8485",
"/  c #CE8787",
"(  c #CE898A",
")  c #CF8B8B",
"_  c #CF8B8C",
"`  c #D3A1A2",
"'  c #D3A2A2",
"]  c #D3A2A3",
"[  c #D4A7A8",
"{  c #D5A7A8",
"}  c #D5A8A8",
"|  c #D5A9A9",
" . c #D6A9A9",
".. c #D5A9AA",
"X. c #D8B3B4",
"o. c #D9B4B5",
"O. c #D9B5B5",
"+. c #C2C2C2",
"@. c #C4C4C4",
"#. c #C6C6C6",
"$. c #C7C7C7",
"%. c #C8C8C8",
"&. c #C9C9C9",
"*. c #CACACA",
"=. c #CBCBCB",
"-. c #CCCCCC",
";. c #CDCDCD",
":. c #CECECE",
">. c #CFCFCF",
",. c #DDC4C4",
"<. c #DDC4C5",
"1. c #DDC5C5",
"2. c #DDC5C6",
"3. c #DEC7C8",
"4. c #DEC9C9",
"5. c #DFC9C9",
"6. c #DFCACA",
"7. c #DFCCCC",
"8. c #D1D1D1",
"9. c #D2D2D2",
"0. c #D3D3D3",
"q. c #D4D4D4",
"w. c #D5D5D5",
"e. c #D6D6D6",
"r. c #D7D7D7",
"t. c #D8D8D8",
"y. c #D9D9D9",
"u. c #DADADA",
"i. c #DCDCDC",
"p. c #DEDEDE",
"a. c #DFDFDF",
"s. c #E0CDCE",
"d. c #E0CECE",
"f. c #E3DDDD",
"g. c #E3DEDE",
"h. c #E3DFDF",
"j. c #E0E0E0",
"k. c #E1E1E1",
"l. c #E4E0E0",
"z. c #E4E1E1",
"x. c #E5E3E3",
"c. c #E4E4E4",
"v. c #E5E4E4",
"b. c #E5E5E5",
"n. c #E5E6E5",
"m. c #E5E6E6",
"M. c #E5E7E7",
"N. c #E6E6E6",
"B. c #E6E7E7",
"V. c #E7E7E7",
"C. c #E6E8E8",
"Z. c #E6E9E9",
"A. c #E6EBEB",
"S. c #E7EBEB",
"D. c #E7ECEC",
/* pixels */
"b.b.b.b.b.b.b.b.b.b.b.b.b.b.b.b.b.b.b.b.b.b.b.b.b.b.",
"b.b.b.b.b.b.b.b.b.b.b.b.b.b.b.b.b.b.b.b.b.b.b.b.b.b.",
"b.b.b.b.b.b.b.b.b.b.b.b.b.b.b.b.b.b.b.b.b.b.b.b.b.b.",
"b.b.b.b.b.b.b.b.b.b.b.b.b.b.b.b.b.b.b.b.b.b.b.b.b.b.",
"b.b.b.b.b.b.b.b.b.b.b.b.b.b.b.b.b.b.b.b.b.b.b.b.b.b.",
"b.b.b.b.b.b.b.b.b.b.b.b.b.b.b.b.b.b.b.b.b.b.b.b.b.b.",
"b.b.b.b.b.b.b.b.b.b.V.V.V.b.b.C.b.c.b.b.b.b.b.b.b.c.",
"b.b.b.b.b.b.b.b.x.c.a.y.y.y.y.y.c.c.b.b.b.b.b.b.b.b.",
"b.b.b.b.b.b.b.c.a.e.=.+.+.+.+.=.q.c.x.b.b.b.b.b.b.b.",
"b.b.b.b.b.b.b.y.#.#.:.8.8.8.8.:.#.#.y.b.b.b.b.b.b.b.",
"b.b.b.b.c.b.e.=.=.:.8.t.y.t.e.q.:.#.%.e.b.b.b.b.b.b.",
"b.b.b.b.c.c.:.@.8.e.y.y.e.y.y.y.y.8.+.:.c.b.b.b.b.b.",
"b.b.b.b.b.e.=.-.e.y.t.t.t.t.t.t.y.e.:.=.e.c.b.b.b.b.",
"b.b.b.b.x.=.%.e.e.y.t.t.t.t.t.t.e.y.e.#.=.c.b.b.b.b.",
"b.b.b.b.c.%.=.e.y.y.y.t.t.t.t.t.y.y.e.=.%.c.b.b.b.b.",
"b.b.b.b.c.%.=.e.y.e.t.t.t.t.t.t.e.e.e.=.%.c.b.b.b.b.",
"b.b.b.b.b.#.=.e.y.e.e.y.e.y.y.y.y.y.e.=.#.c.b.b.b.b.",
"b.b.b.b.c.=.#.e.r.y.y.y.y.y.e.e.y.e.8.=.=.c.b.b.b.b.",
"b.b.b.b.c.e.=.-.r.y.y.e.y.e.y.y.y.e.=.=.e.c.b.b.b.b.",
"b.b.b.c.c.c.:.+.8.e.y.r.y.y.e.y.e.8.#.:.c.b.b.b.b.b.",
"b.b.b.b.b.b.y.=.=.:.e.e.y.y.e.e.>.=.=.t.b.b.b.b.b.b.",
"b.b.b.b.b.b.c.y.#.#.:.8.8.8.8.:.#.#.y.c.b.b.b.b.b.b.",
"b.b.b.b.b.b.b.c.a.e.=.+.+.+.+.=.e.a.c.b.b.b.b.b.b.b.",
"b.b.b.b.b.b.b.b.c.a.a.e.y.y.y.a.c.c.c.b.b.b.b.b.b.b.",
"b.b.b.b.b.b.b.b.b.b.b.V.V.V.b.V.b.b.b.b.b.b.b.b.b.b.",
"b.b.b.b.b.b.b.b.b.b.b.b.b.b.b.b.b.b.b.b.b.b.b.b.b.b.",
"b.b.b.b.b.b.b.b.b.b.b.b.b.b.b.b.b.b.b.b.b.b.b.b.b.b.",
"b.b.b.b.b.b.b.b.b.b.b.b.b.b.b.b.b.b.b.b.b.b.b.b.b.b.",
"V.b.b.b.b.b.b.V.b.b.V.V.V.b.b.b.V.V.V.V.b.b.V.V.V.b.",
"e.8.e.8.8.e.8.e.e.8.e.8.e.e.8.8.e.8.8.e.e.8.e.8.e.8.",
"! ! ! ! ! ! ! ! ! ! ! ! ! ! ! ! ! ! ! ! ! ! ! ! ! ! ",
"a.a.a.a.a.a.a.a.y.a.a.a.a.a.a.a.a.a.a.a.y.a.a.a.a.a.",
"b.b.b.b.b.V.V.b.V.V.b.V.V.b.V.b.b.b.C.b.V.V.b.V.V.b.",
"b.b.b.b.b.b.b.b.b.b.b.b.b.b.b.b.b.b.b.b.b.b.b.b.b.b.",
"b.b.b.b.b.b.b.b.b.b.b.b.b.b.b.b.b.b.b.b.b.b.b.b.b.b.",
"b.b.b.b.b.b.b.b.b.b.b.b.b.b.b.b.b.b.b.b.b.b.b.b.b.b.",
"b.b.b.b.b.b.b.b.b.b.b.b.b.b.b.b.b.b.b.b.b.b.b.b.b.b.",
"b.b.b.b.b.b.b.b.b.C.C.D.D.D.D.D.C.b.b.b.b.b.b.b.b.b.",
"b.b.b.b.b.b.b.b.b.d.O.{ {  . .O.d.b.b.b.b.b.b.b.b.b.",
"b.b.b.b.b.b.b.h.2.^ F r r e e F ^ 2.f.b.b.b.b.b.b.b.",
"b.b.b.b.b.b.c. .l s p v C c c p s l  .c.v.v.b.b.b.b.",
"b.b.b.b.b.C.` G 9 1 v S S S S t 1 1 G ` C.b.b.b.b.b.",
"b.b.b.b.x.5.E & , % = C D D v = % , & T 5.v.b.b.b.b.",
"b.b.v.b.x.) k 8 > o @ ; v v ; # o > 3 f ) f.b.b.b.b.",
"b.b.b.b.f.U 0 C M : + O : : O + ; C C 8 Y h.C.b.b.b.",
"b.b.b.C.f.K 5 S A C - # . . # = C S S 5 K h.b.b.b.b.",
"b.b.b.b.f.K 8 A A A v $     $ y D S S 5 K f.C.b.b.b.",
"b.b.b.C.f.K 5 A A C - # . . # = v S S 5 K f.b.b.b.b.",
"b.b.b.C.f.I 8 C C ; + O ; ; O + > C C 0 U f.b.b.b.b.",
"b.b.b.b.x.^ f 3 > o @ ; C C ; @ o > 3 k _ x.b.b.b.b.",
"b.b.b.b.c.5.T < , % = C S S v = % , * E 5.b.b.b.b.b.",
"b.b.b.b.b.b.` G 1 < t S S S S v < 1 J ` C.b.b.b.b.b.",
"b.b.b.b.b.b.f. .g s p x v C v p a h  .x.b.b.b.b.b.b.",
"b.b.b.b.b.b.b.f.2.W h w e r w k ~ 2.f.b.b.b.b.b.b.b.",
"b.b.b.b.b.b.b.b.b.d.X.[  .{  .O.7.b.b.b.b.b.b.b.b.b.",
"b.b.b.b.b.b.b.b.b.C.C.D.D.D.D.D.C.b.b.b.b.b.b.b.b.b.",
"b.b.b.b.b.b.b.b.b.b.b.b.b.b.b.b.b.b.b.b.b.b.b.b.b.b.",
"b.b.b.b.b.b.b.b.b.b.b.b.b.b.b.b.b.b.b.b.b.b.b.b.b.b.",
"b.b.b.b.b.b.b.b.b.b.b.b.b.b.b.b.b.b.b.b.b.b.b.b.b.b.",
"V.V.b.C.V.V.b.b.V.V.V.V.V.V.b.b.V.C.b.C.V.V.V.b.V.V.",
"e.0.0.0.0.0.0.e.e.0.0.0.0.0.0.e.e.8.e.8.e.8.e.0.e.8.",
"Q Q Q Q Q Q Q Q Q Q Q Q Q Q Q Q Q Q Q Q Q Q Q Q Q Q "
};
