/* XPM */
static char *closeA[] = {
/* columns rows colors chars-per-pixel */
"26 62 251 2 ",
"   c #360707",
".  c #580C0C",
"X  c #590C0C",
"o  c #600D0D",
"O  c #660D0D",
"+  c #690E0E",
"@  c #720F0F",
"#  c #771010",
"$  c #851211",
"%  c #861112",
"&  c #B00D0F",
"*  c #B00F11",
"=  c #B90F11",
"-  c #A11515",
";  c #A21516",
":  c #A61616",
">  c #A81616",
",  c #AA1617",
"<  c #AD1617",
"1  c #B21314",
"2  c #B21315",
"3  c #B21416",
"4  c #B31517",
"5  c #B41517",
"6  c #B71517",
"7  c #B81011",
"8  c #B91011",
"9  c #B91012",
"0  c #B81516",
"q  c #B81517",
"w  c #B91617",
"e  c #B31618",
"r  c #B91618",
"t  c #BF1719",
"y  c #B2191A",
"u  c #B2191B",
"i  c #B31A1C",
"p  c #B31B1D",
"a  c #BF1819",
"s  c #BF1919",
"d  c #BD1C1E",
"f  c #BD1D1F",
"g  c #BE1D1F",
"h  c #B92729",
"j  c #B92829",
"k  c #B9282A",
"l  c #BA282A",
"z  c #BB3B3D",
"x  c #BC3D3F",
"c  c #BE3C3E",
"v  c #C11718",
"b  c #C01719",
"n  c #C11719",
"m  c #C21718",
"M  c #C21719",
"N  c #C01819",
"B  c #C31819",
"V  c #C3191A",
"C  c #C41819",
"Z  c #C4191A",
"A  c #C5191A",
"S  c #C51A1A",
"D  c #C81A1B",
"F  c #C91A1B",
"G  c #CA1A1B",
"H  c #CB1A1B",
"J  c #E81517",
"K  c #E81618",
"L  c #E81619",
"P  c #ED1619",
"I  c #ED1719",
"U  c #EE1619",
"Y  c #EE171A",
"T  c #EC1B1E",
"R  c #EB1C1E",
"E  c #EB1D1F",
"W  c #EC1C1E",
"Q  c #EC1C1F",
"!  c #EC1D1F",
"~  c #EF1D1F",
"^  c #F31B1E",
"/  c #F01C1F",
"(  c #F01D1F",
")  c #F31C1E",
"_  c #E41F21",
"`  c #F41D20",
"'  c #F51D20",
"]  c #F41E21",
"[  c #F51E21",
"{  c #F61E21",
"}  c #F71E21",
"|  c #F51F22",
" . c #F61F22",
".. c #F71F22",
"X. c #F81E21",
"o. c #F91E21",
"O. c #F81F21",
"+. c #F81F22",
"@. c #C03B3C",
"#. c #C13C3E",
"$. c #C13D3F",
"%. c #C13E3F",
"&. c #E52022",
"*. c #E52123",
"=. c #E52224",
"-. c #EF2325",
";. c #EF2326",
":. c #F02326",
">. c #F02426",
",. c #FA2023",
"<. c #FB2023",
"1. c #FC2023",
"2. c #FD2023",
"3. c #E82E30",
"4. c #E82F30",
"5. c #E92F31",
"6. c #BC3E40",
"7. c #BE3F41",
"8. c #BF4042",
"9. c #BF4142",
"0. c #BF4547",
"q. c #BF4647",
"w. c #BF4648",
"e. c #BF4748",
"r. c #C04E4F",
"t. c #C04E50",
"y. c #C04F50",
"u. c #C35658",
"i. c #C35758",
"p. c #C35859",
"a. c #C3585A",
"s. c #E54143",
"d. c #E74244",
"f. c #E64345",
"g. c #E64445",
"h. c #EA4042",
"j. c #EA4244",
"k. c #EA4345",
"l. c #EB4345",
"z. c #E84547",
"x. c #E84647",
"c. c #E84748",
"v. c #E74B4D",
"b. c #E84B4D",
"n. c #E84C4D",
"m. c #E84C4E",
"M. c #E55355",
"N. c #E65355",
"B. c #E65455",
"V. c #E55456",
"C. c #E65B5D",
"Z. c #E75C5D",
"A. c #E75D5E",
"S. c #E75D5F",
"D. c #CA6869",
"F. c #CA696A",
"G. c #E96C6D",
"H. c #E96C6E",
"J. c #E96D6E",
"K. c #EA6D6F",
"L. c #D38586",
"P. c #D5898A",
"I. c #D58A8B",
"U. c #D58E8F",
"Y. c #D69091",
"T. c #D69293",
"R. c #ED898A",
"E. c #ED8C8D",
"W. c #ED8D8E",
"Q. c #ED8E8F",
"!. c #EC9192",
"~. c #ED9394",
"^. c #ED9496",
"/. c #ED9596",
"(. c #DCAAAB",
"). c #DCABAB",
"_. c #DEB0B1",
"`. c #DEB1B1",
"'. c #DFB1B2",
"]. c #DFB2B3",
"[. c #DFB3B3",
"{. c #ECACAD",
"}. c #EDACAD",
"|. c #EDADAD",
" X c #EDADAE",
".X c #EDB2B3",
"XX c #EDB3B3",
"oX c #EDB4B5",
"OX c #EEB4B4",
"+X c #EEB4B5",
"@X c #E2BDBD",
"#X c #E2BEBF",
"$X c #E3BEBF",
"%X c #E3BFBF",
"&X c #EEBFBF",
"*X c #C0C0C0",
"=X c #C6C6C6",
"-X c #EFC0C0",
";X c #EFC0C1",
":X c #E8CFD0",
">X c #E8D0D0",
",X c #E8D0D1",
"<X c #E9D3D3",
"1X c #EFD0D1",
"2X c #E9D4D5",
"3X c #EAD4D4",
"4X c #EAD5D5",
"5X c #EBD7D8",
"6X c #EBD9D9",
"7X c #F0D1D1",
"8X c #F0D2D2",
"9X c #F1D4D4",
"0X c #F1D5D6",
"qX c #F1D6D6",
"wX c #F1D8D9",
"eX c #F1DADA",
"rX c #E0E0E0",
"tX c #EBEBEB",
"yX c #EFEAEA",
"uX c #F0EAEA",
"iX c #F1EAEA",
"pX c #F1EAEB",
"aX c #F0EBEB",
"sX c #F1EBEB",
"dX c #F2EBEB",
"fX c #F0ECEC",
"gX c #F1EDED",
"hX c #F2ECEC",
"jX c #F2EDED",
"kX c #F2EDEE",
"lX c #F1EEEE",
"zX c #F1F0F0",
"xX c #F2F0F0",
"cX c #F2F1F1",
"vX c #F2F2F2",
"bX c #F2F3F2",
"nX c #F2F3F3",
"mX c #F3F3F3",
"MX c #F2F4F3",
"NX c #F2F4F4",
"BX c #F3F4F4",
"VX c #F2F5F5",
"CX c #F3F5F5",
"ZX c #F3F6F5",
"AX c #F2F6F6",
"SX c #F3F6F6",
"DX c #F4F4F4",
"FX c #F2F8F8",
"GX c #F3FAFA",
"HX c #F4F8F8",
"JX c #F4FAFA",
/* pixels */
"vXvXvXvXvXvXvXvXvXvXvXvXvXvXvXvXvXvXvXvXvXvXvXvXvXvX",
"vXvXvXvXvXvXvXvXvXvXvXvXvXvXvXvXvXvXvXvXvXvXvXvXvXvX",
"vXvXvXvXvXvXvXvXvXvXvXvXvXvXvXvXvXvXvXvXvXvXvXvXvXvX",
"vXvXvXvXvXvXvXvXvXvXvXvXvXvXvXvXvXvXvXvXvXvXvXvXvXvX",
"vXvXvXvXvXvXvXvXvXvXvXvXvXvXvXvXvXvXvXvXvXvXvXvXvXvX",
"vXvXvXvXvXvXvXvXvXvXvXvXvXvXvXvXvXvXvXvXvXvXvXvXvXvX",
"vXvXvXvXvXvXvXvXvXVXVXGXGXGXGXGXVXvXvXvXvXvXvXvXvXvX",
"vXvXvXvXvXvXvXvXvXeX;XXXXXXXXX;XeXvXVXvXvXvXvXvXvXvX",
"vXvXvXvXvXvXvXiX8XQ.c.*.=.=.=.c.Q.1XiXvXvXvXvXvXvXvX",
"vXvXvXvXvXvXjX+Xg.5.>.[ [ [ [ >.5.f.OXjXvXvXvXvXvXvX",
"vXvXvXvXvXVX|.v.Q ^ +.1.1.1.<.+.^ R b.{.VXvXvXvXvXvX",
"vXvXvXvXvXqXJ.J [ 1.1.1.1.1.1.1.<.[ J G.qXvXvXvXvXvX",
"vXvXvXvXjX/.l.( 1.1.1.1.1.1.1.1.1.<.( j.~.jXvXvXvXvX",
"vXvXvXVXiXA.Q +.1.1.1.1.1.1.1.1.1.1.+.R C.iXVXvXvXvX",
"vXvXvXVXiXN.U <.1.1.1.1.1.1.1.1.1.1.<.U N.iXMXvXvXvX",
"vXvXvXVXiXB.U 1.1.1.1.1.1.1.1.1.1.1.1.U N.iXVXvXvXvX",
"vXvXvXVXiXN.U <.1.1.1.1.1.1.1.1.1.1.<.U B.iXVXvXvXvX",
"vXvXvXMXiXA.R +.1.1.1.1.1.1.1.1.1.1.+._ A.iXvXvXvXvX",
"vXvXvXvXjX~.h.( 1.1.1.1.1.1.1.1.1.1.^ j.~.jXVXvXvXvX",
"vXvXvXvXzX8XJ.J [ 1.1.1.1.1.1.1.1.[ K J.qXvXvXvXvXvX",
"vXvXvXvXvXDX|.m.` ( [ 1.1.1.1.+.) Q m.|.VXvXvXvXvXvX",
"vXvXvXvXvXvXjXXXg.4.;.) [ [ [ >.5.f.+XjXvXvXvXvXvXvX",
"vXvXvXvXvXvXvXiX8XR.j.&.*.*.*.l.Q.8XiXvXvXvXvXvXvXvX",
"vXvXvXvXvXvXvXvXmX6X&XXXXXXXXX&XeXvXvXvXvXvXvXvXvXvX",
"vXvXvXvXvXvXvXvXvXVXGXGXGXGXGXGXVXvXvXvXvXvXvXvXvXvX",
"vXvXvXvXvXvXvXvXvXvXvXvXvXvXvXvXvXvXvXvXvXvXvXvXvXvX",
"vXvXvXvXvXvXvXvXvXvXvXvXvXvXvXvXvXvXvXvXvXvXvXvXvXvX",
"vXvXvXvXvXvXvXvXvXvXvXvXvXvXvXvXvXvXvXvXvXvXvXvXvXvX",
"DXDXDXvXDXDXDXDXmXDXDXmXmXVXvXVXmXAXVXVXDXDXDXVXDXDX",
"rXrXrXrXrXrXrXrXrXrXrXrXrXrXrXrXrX6XrXrXrXrXrXrXrXrX",
"=X=X=X=X=X=X=X=X=X=X=X=X=X=X=X=X=X=X=X=X=X=X=X=X=X=X",
"tXtXtXtXtXtXtXtXtXtXtXtXtXtXtXtXtXtXtXtXtXtXtXtXtXtX",
"vXDXDXvXDXDXvXDXDXvXDXvXDXDXvXDXMXDXmXmXmXmXmXmXmXmX",
"vXvXvXvXvXvXvXvXvXvXvXvXvXvXvXvXvXvXvXvXvXvXvXvXvXvX",
"vXvXvXvXvXvXvXvXvXvXvXvXvXvXvXvXvXvXvXvXvXvXvXvXvXvX",
"vXvXvXvXvXvXvXvXvXvXvXvXvXvXvXvXvXvXvXvXvXvXvXvXvXvX",
"vXvXvXvXvXvXvXvXvXvXvXMXvXvXvXvXvXvXvXvXvXvXvXvXvXvX",
"vXvXvXvXvXvXvXvXvXVXJXJXJXJXJXJXVXvXvXvXvXvXvXvXvXvX",
"vXvXvXvXvXvXvXMXvX6X%X_._._._.#X6XvXMXvXvXvXvXvXvXvX",
"vXvXvXvXvXvXvXaX>XI.8.i p i i 8.I.:XyXvXvXvXvXvXvXvX",
"vXvXvXvXvXMXjX).x l g B B B B g l 7._.tXDXvXvXvXvXvX",
"vXvXvXvXvXDX).r.2 2 s F D D D s 1 e e.(.SXvXvXvXvXvX",
"vXvXvXvXvX3XF.& < % ; S D D S ; % < & D.3XzXvXvXvXvX",
"vXvXvXvXjXT.7.r , o # ; S B : @ o , 6 #.T.jXMXvXvXvX",
"vXvXvXVXtXa.r S B > O O : : O + > V S 6 i.yXDXvXvXvX",
"vXvXvXVXvXe.9 F D S ; # X X # : V G G 9 e.iXVXvXvXvX",
"vXvXvXMXiXe.9 D D H s %     % s G G G 9 y.tXVXvXvXvX",
"vXvXvXVXiXr.9 D D S ; # . . # ; V G G 9 y.aXDXvXvXvX",
"vXvXvXDXiXi.6 S S > + O : : O O : S S r a.yXVXvXvXvX",
"vXvXvXvXjXU.c 6 < X @ : B S : @ o > 9 #.T.jXMXvXvXvX",
"vXvXvXvXzX>XD.& < % ; S D G S ; % < * D.3XvXvXvXvXvX",
"vXvXvXvXvXvX(.r.6 1 s S G G G B 1 2 r.).VXvXvXvXvXvX",
"vXvXvXvXvXmXiX_.7.l g B m S m g l z _.jXvXvXvXvXvXvX",
"vXvXvXvXvXvXvXiX>XL.x e i i i 7.I.>XaXvXvXvXvXvXvXvX",
"vXvXvXvXvXvXvXMXvX3X#X_._._._.#X6XvXMXvXvXvXvXvXvXvX",
"vXvXvXvXvXvXvXvXvXVXGXJXJXJXJXJXVXvXvXvXvXvXvXvXvXvX",
"vXvXvXvXvXvXvXvXvXvXvXvXvXvXvXvXvXvXvXvXvXvXvXvXvXvX",
"vXvXvXvXvXvXvXvXvXvXvXvXvXvXvXvXvXvXvXvXvXvXvXvXvXvX",
"vXvXvXvXvXvXvXvXvXvXvXvXvXvXvXDXvXvXvXvXvXvXvXMXvXvX",
"DXDXDXDXDXDXDXDXDXDXDXDXDXDXDXDXDXDXDXDXDXDXDXDXDXDX",
"rXrXrXrXrXrXrXrXrXrXrXrXrXrXrXrXrXrXrXrXrXrXrXrXrXrX",
"*X*X*X*X*X*X*X*X*X*X*X*X*X*X*X*X*X*X*X*X*X*X*X*X*X*X"
};
