/* XPM */
static char *maximizeO[] = {
/* columns rows colors chars-per-pixel */
"26 62 249 2 ",
"   c #0F4612",
".  c #104F14",
"X  c #125615",
"o  c #135D17",
"O  c #135E17",
"+  c #135F17",
"@  c #145F17",
"#  c #146018",
"$  c #146118",
"%  c #156419",
"&  c #166A1A",
"*  c #176E1B",
"=  c #176F1B",
"-  c #117517",
";  c #117817",
":  c #127917",
">  c #117B16",
",  c #117C16",
"<  c #17711C",
"1  c #18731C",
"2  c #137C18",
"3  c #18791D",
"4  c #1A7B1E",
"5  c #1A7D1F",
"6  c #1A7E1F",
"7  c #1A7F1F",
"8  c #1C7D20",
"9  c #1C7D21",
"0  c #1D7C22",
"q  c #1E7C22",
"w  c #1D7E22",
"e  c #19821E",
"r  c #1A821F",
"t  c #1A831F",
"y  c #1A851F",
"u  c #1B851F",
"i  c #1A861F",
"p  c #1A871F",
"a  c #19881E",
"s  c #19891E",
"d  c #1B8120",
"f  c #1B8220",
"g  c #1B8320",
"h  c #1B8520",
"j  c #1C8421",
"k  c #1C8621",
"l  c #1D8D22",
"z  c #1E8E23",
"x  c #1D9122",
"c  c #1D9123",
"v  c #1E9123",
"b  c #1F9124",
"n  c #1F9324",
"m  c #1F9424",
"M  c #1F9525",
"N  c #1F9625",
"B  c #218A26",
"V  c #228A26",
"C  c #228A27",
"Z  c #2A882F",
"A  c #209525",
"S  c #209725",
"D  c #2B8830",
"F  c #2C8930",
"G  c #1CA623",
"H  c #1CAA23",
"J  c #1DAA24",
"K  c #1CB124",
"L  c #1EB125",
"P  c #1EB126",
"I  c #21A427",
"U  c #22A529",
"Y  c #24AD2B",
"T  c #24AF2B",
"R  c #26AF2D",
"E  c #27AF2E",
"W  c #28AD2F",
"Q  c #24B02B",
"!  c #23B52B",
"~  c #24B52B",
"^  c #25B22C",
"/  c #24B52C",
"(  c #24B62C",
")  c #25B62C",
"_  c #28B02F",
"`  c #23BC2B",
"'  c #24BC2B",
"]  c #25BA2C",
"[  c #24BA2D",
"{  c #24BD2C",
"}  c #2BBC32",
"|  c #2CBC33",
" . c #34B73B",
".. c #35B73C",
"X. c #35B83C",
"o. c #28C02F",
"O. c #28C030",
"+. c #28C130",
"@. c #28C430",
"#. c #29C430",
"$. c #28C530",
"%. c #29C631",
"&. c #29C731",
"*. c #2AC932",
"=. c #3E8F42",
"-. c #3D9342",
";. c #3F9243",
":. c #409343",
">. c #409044",
",. c #419145",
"<. c #419445",
"1. c #429446",
"2. c #439447",
"3. c #449448",
"4. c #48964C",
"5. c #48974D",
"6. c #49974D",
"7. c #509854",
"8. c #509954",
"9. c #519954",
"0. c #519955",
"q. c #589D5C",
"w. c #599E5C",
"e. c #5A9E5D",
"r. c #5A9E5E",
"t. c #47B94D",
"y. c #47BD4D",
"u. c #49BB4F",
"i. c #48BC4E",
"p. c #48BE4E",
"a. c #49BE4F",
"s. c #49BF4F",
"d. c #4ABB50",
"f. c #4BBD51",
"g. c #4CBD52",
"h. c #4DBD53",
"j. c #51BE56",
"k. c #51BF57",
"l. c #52BF58",
"z. c #58BF5E",
"x. c #59BF5E",
"c. c #59BF5F",
"v. c #6AA86D",
"b. c #6BA86E",
"n. c #60C165",
"m. c #61C166",
"M. c #62C267",
"N. c #71C875",
"B. c #71C876",
"V. c #72C876",
"C. c #87B98A",
"Z. c #8BBB8D",
"A. c #8CBC8E",
"S. c #8CBC8F",
"D. c #8FBD92",
"F. c #92BE93",
"G. c #93BF95",
"H. c #8CD290",
"J. c #90D494",
"K. c #91D494",
"L. c #91D495",
"P. c #94D498",
"I. c #96D599",
"U. c #98D59B",
"Y. c #ABCAAD",
"T. c #ABCBAD",
"R. c #ACCBAD",
"E. c #B1CEB2",
"W. c #B1CEB3",
"Q. c #B2CFB3",
"!. c #B3CFB4",
"~. c #B3CFB5",
"^. c #AFDBB1",
"/. c #AFDCB2",
"(. c #B3D0B5",
"). c #B4DDB6",
"_. c #B5DDB7",
"`. c #B4DEB7",
"'. c #B5DEB7",
"]. c #BED5BF",
"[. c #B6DEB8",
"{. c #B6DFB9",
"}. c #BFD6C0",
"|. c #BFD6C1",
" X c #C0C0C0",
".X c #C6C6C6",
"XX c #D0DFD0",
"oX c #C0E2C2",
"OX c #C1E2C3",
"+X c #C2E2C3",
"@X c #C2E2C4",
"#X c #D0E0D1",
"$X c #D1E0D1",
"%X c #D1E0D2",
"&X c #D2E7D3",
"*X c #D3E2D4",
"=X c #D5E2D5",
"-X c #D5E3D6",
";X c #D1E8D3",
":X c #D2E8D3",
">X c #D5E9D6",
",X c #D6E9D7",
"<X c #D6EAD7",
"1X c #D8E4D9",
"2X c #D9E5DA",
"3X c #DAE5DA",
"4X c #D7EAD8",
"5X c #D9EADA",
"6X c #DAEBDB",
"7X c #DBEBDB",
"8X c #DBEBDC",
"9X c #E0E0E0",
"0X c #EBEBEB",
"qX c #EAEDEA",
"wX c #EAEEEA",
"eX c #EAEFEA",
"rX c #EBEEEB",
"tX c #EAEFEB",
"yX c #ECEFEC",
"uX c #EDEFED",
"iX c #EBF0EB",
"pX c #ECF0ED",
"aX c #EDF0ED",
"sX c #EDF1ED",
"dX c #EEF0ED",
"fX c #EEF0EE",
"gX c #EEF1EE",
"hX c #F0F1F0",
"jX c #F1F2F1",
"kX c #F1F2F2",
"lX c #F2F2F2",
"zX c #F3F2F2",
"xX c #F3F2F3",
"cX c #F3F3F3",
"vX c #F4F2F3",
"bX c #F4F3F3",
"nX c #F4F2F4",
"mX c #F4F3F4",
"MX c #F5F3F5",
"NX c #F6F3F5",
"BX c #F6F3F6",
"VX c #F4F4F4",
"CX c #F5F4F5",
"ZX c #F5F4F6",
"AX c #F6F4F6",
"SX c #F8F4F8",
"DX c #F8F5F8",
"FX c #F9F4F9",
"GX c #FAF6FA",
/* pixels */
"lXlXlXlXlXlXlXlXlXlXlXlXlXlXlXlXlXlXlXlXlXlXlXlXlXlX",
"lXlXlXlXlXlXlXlXlXlXlXlXlXlXlXlXlXlXlXlXlXlXlXlXlXlX",
"lXlXlXlXlXlXlXlXlXlXlXlXlXlXlXlXlXlXlXlXlXlXlXlXlXlX",
"lXlXlXlXlXlXlXlXlXlXlXlXlXlXlXlXlXlXlXlXlXlXlXlXlXlX",
"lXlXlXlXlXlXlXlXlXlXlXlXlXlXlXlXlXlXlXlXlXlXlXlXlXlX",
"lXlXlXlXlXlXlXlXlXlXlXlXlXlXlXlXlXlXlXlXlXlXlXlXlXlX",
"lXlXlXlXlXlXlXlXlXMXCXFXFXFXFXFXMXlXlXlXlXlXlXlXlXlX",
"lXlXlXlXlXlXlXlXlX8X@X_._._._.+X8XlXMXlXlXlXlXlXlXlX",
"lXlXlXlXlXlXlXiX:XL.h._ W W W h.L.&XeXlXlXlXlXlXlXlX",
"lXlXlXlXlXlXaX{.i.X.| ( I U ( }  .d.[.aXlXlXlXlXlXlX",
"lXlXlXlXlXCX^.k.( { $.^ z z ^ $.` ( j.^.MXlXlXlXlXlX",
"lXlXlXlXlX<XB.K +.$.*.T d d T *.$.{ K B.<XlXlXlXlXlX",
"lXlXlXMXaXI.s.[ $.*.*.^ f f ^ *.*.&.[ f.I.aXlXlXlXlX",
"lXlXlXlXiXM.( +.+.$.$.T d d T $.$.$.+.( M.iXlXlXlXlX",
"lXlXlXMXiXx.H U A m A k & & k m m m U J x.eXlXlXlXlX",
"lXlXlXMXiXx.G N w 6 6 1 + + 1 6 6 9 A G x.eXMXlXlXlX",
"lXlXlXlXeXx.J U A A m h & & k A m m U J x.eXvXlXlXlX",
"lXlXlXMXeXM.( +.+.$.$.T d f T $.$.$.+.( M.iXMXlXlXlX",
"lXlXlXlXaXL.y.[ $.*.*.^ f f Q *.*.$.[ f.U.aXlXlXlXlX",
"lXlXlXlXlX<XB.K } &.*.T d d T *.$.+.K B.<XlXlXlXlXlX",
"lXlXlXlXlXMX^.j.( ` $.^ z z ^ $.{ ( j.).vXlXlXlXlXlX",
"lXlXlXlXlXlXaX_.f. .} ! I U ~ | ..u.[.aXlXlXlXlXlXlX",
"lXlXlXlXlXlXlXeX&XH.i.T W W T f.L.&XiXlXlXlXlXlXlXlX",
"lXlXlXlXlXlXlXlXlX6X+X[._.[._.+X6XlXvXlXlXlXlXlXlXlX",
"lXlXlXlXlXlXlXlXlXMXSXFXFXFXFXSXMXlXlXlXlXlXlXlXlXlX",
"lXlXlXlXlXlXlXlXlXlXlXlXlXlXlXlXlXlXlXlXlXlXlXlXlXlX",
"lXlXlXlXlXlXlXlXlXlXlXlXlXlXlXlXlXlXlXlXlXlXlXlXlXlX",
"lXlXlXlXlXlXlXlXlXlXlXlXlXlXlXlXlXlXlXlXlXlXlXlXlXlX",
"cXMXlXMXMXMXMXMXcXVXVXcXVXVXVXcXVXcXVXVXcXVXVXVXVXcX",
"9X9X9X9X9X3X9X9X9X9X9X9X9X9X9X9X9X9X9X9X9X9X9X9X9X9X",
".X.X.X.X.X.X.X.X.X.X.X.X.X.X.X.X.X.X.X.X.X.X.X.X.X.X",
"0X0X0X0X0X0X0X0X0X0X0X0X0X0X0X0X0X0X0X0X0X0X0X0X0X0X",
"lXVXlXCXMXlXcXcXcXcXcXcXcXcXcXcXVXVXvXVXVXvXVXVXvXVX",
"lXlXlXlXlXlXlXlXlXlXlXlXlXlXlXlXlXlXhXlXlXhXlXlXhXlX",
"lXlXlXlXlXlXlXlXlXlXlXlXlXlXlXlXlXlXlXlXlXlXlXlXlXvX",
"lXlXlXlXlXlXlXlXlXlXlXlXlXlXlXlXlXlXlXlXlXlXlXlXlXhX",
"lXlXlXlXlXlXlXlXlXlXlXlXlXcXcXlXlXlXlXlXlXlXlXlXlXlX",
"lXlXlXlXlXlXlXlXlXCXFXFXFXGXGXCXVXVXlXlXlXlXlXlXlXlX",
"lXlXlXlXlXlXlXlXlX3X}.Q.Q.Q.(.}.2XhXvXvXhXvXlXlXlXlX",
"lXlXlXlXlXlXlXeX$XS.3.w w w w 2.Z.XX0XhXlXlXlXlXlXlX",
"lXlXlXlXlXvXaX(.>.F B t 3 3 r B Z >.(.iXvXvXlXlXlXlX",
"lXlXlXlXlXCXY.5.r s n k & & k n s u 5.Y.SXlXlXvXlXlX",
"lXlXlXlXhX=Xv., z n m k # + t A A p , v.*XhXvXhXlXlX",
"lXlXlXvXaXG.<.s m m m r # # t A A A r <.F.iXvXvXlXlX",
"lXlXlXvXeXq.t V V A A f # # f A A V s t q.eXVXlXlXlX",
"lXlXlXVXeX8.- 3 < * * # . . # * * < 5 , 8.0XvXlXlXlX",
"lXlXlXvXeX8.- < o o o X     X + o o < - 8.eXvXlXlXlX",
"lXlXlXVXeX8.: 3 < * 1 % . . # 1 * * 3 : 8.eXVXlXlXlX",
"lXlXlXvXeXq.t z n n n t o # 5 A A V V i w.0XvXvXlXlX",
"lXlXlXvXuXF.F r n m m t # # t A m n p <.K.0XvXvXlXlX",
"lXlXlXvXlX-Xb.t z n A t # # t A n s 2 b.XXhXhXvXlXlX",
"lXlXlXlXcXSXR.6.r s V k & & k A a e 6.R.SXhXvXhXlXlX",
"lXlXlXlXlXlXiXQ.>.Z B u 3 3 r B Z >.!.0XvXhXvXvXlXlX",
"lXlXlXlXlXlXlXeXXXC.-.5 q w t 2.Z.$X0XvXvXvXvXhXlXlX",
"lXlXlXlXlXlXlXvXlX3X].Q.Q.Q.(.].2XvXvXhXhXvXhXvXlXlX",
"lXlXlXlXlXlXlXlXlXCXFXGXGXFXGXSXvXvXvXhXvXhXvXhXlXlX",
"lXlXlXlXlXlXlXlXlXlXlXlXlXlXlXlXvXlXlXlXlXlXlXlXlXlX",
"lXlXlXlXlXlXlXlXlXlXlXlXlXlXlXlXlXlXlXlXlXlXlXlXlXlX",
"lXlXlXlXlXlXlXlXlXlXlXlXlXlXlXcXlXlXlXlXlXlXlXvXlXlX",
"VXVXVXVXVXVXVXVXVXVXVXVXVXVXVXCXVXVXVXVXVXVXVXVXVXVX",
"9X9X9X9X9X9X9X9X9X9X9X9X9X9X9X9X9X9X9X9X9X9X9X9X9X9X",
" X X X X X X X X X X X X X X X X X X X X X X X X X X"
};
