/* XPM */
static char *menuButtonA[] = {
/* columns rows colors chars-per-pixel */
"31 62 14 1 ",
"  c #CBCBCB",
". c #D7D7D7",
"X c #DEDEDE",
"o c #E1E1E1",
"O c #E7E7E7",
"+ c #EEEEEE",
"@ c #F0F0F0",
"# c #F1F1F1",
"$ c #F1F2F1",
"% c #F2F1F2",
"& c #F2F2F2",
"* c #F3F2F3",
"= c #F3F3F3",
"- c #F4F3F4",
/* pixels */
"&&&&&&&&&&&&&&&&&&&&&&&&&&&&&&&",
"&&&&&&&&&&&&&&&&&&&&&&&&&&&&&&&",
"&&&&&&&&&&&&&&&&&&&&&&&&&&&&&&&",
"&&&&&&&&&&&&&&&&&&&&&&&&&&&&&&&",
"&&&&&&&&&&&&&&&&&&&&&&&&&&&&&&&",
"&&&&&&&&&&&&&&&&&&&&&&&&&&&&&&&",
"&&&&&&&&&&&&&&&&&&&&&&&&&&&&&&&",
"&&&&&&&&&&&&&&&&&&&&&&&&&&&&&&&",
"&&&&&&&&&&&&&&&&&&&&&&&&&&&&&&&",
"&&&&&&&&&&&&&&&&&&&&&&&&&&&&&&&",
"&&&&&&&&&&&&&&&&&&&&&&&&&&&&&&&",
"&&&&&&&&&&&&&&&&&&&&&&&&&&&&&&&",
"&&&&&&&&&&&&&&&&&&&&&&&&&&&&&&&",
"&&&&&&&&&&&&&&&&&&&&&&&&&&&&&&&",
"&&&&&&&&&&&&&&&&&&&&&&&&&+&&&&&",
"&&&&&&&&&&&&&&&&&&&&&&&&&&&&&&&",
"&&&&&&&&&&&&&&&&&&&&&&&&&&&&&&&",
"&&&&&&&&&&&&&&&&&&&&&&&&&&&&&&&",
"&&&&&&&&&&&&&&&&&&&&&&&&&&&&&&&",
"&&&&&&&&&&&&&&&&&&&&&&&&&&&&&&&",
"&&&&&&&&&&&&&&&&&&&&&&&&&&&&&&&",
"&&&&&&&&&&&&&&&&&&&&&&&&&&&&&&&",
"&&&&&&&&&&&&&&&&&&&&&&&&&&&&&&&",
"&&&&&&&&&&&&&&&&&&&&&&&&&&&&&&&",
"&&&&&&&&&&&&&&&&&&&&&&&&&&&&&&&",
"&&&&&&&&&&&&&&&&&&&&&&&&&&&&&&&",
"&&&&&&&&&&&&&&&&&&&&&&&&&&&&&&&",
"&&&&&&&&&&&&&&&&&&&&&&&&&&&&&&&",
"+++++++++++++++++++++++++++++++",
"ooooooooooooooooooooooXoooooooo",
"...............................",
"OOOOOOOOOOOOOOOOOOOOOOOOOOOOOOO",
"+&+&+&+&+&@@@&+&@@@@@@@@@@@@@@@",
"&&&&&&&&&&&&&&&&&&&&=&&&=&=&&&&",
"&&&&&&&&&&&&&&&&&&&&&&&&&&&&&&&",
"&&&&&&&&&&&&&&&&&&&&&&&&&&&&&&&",
"&&&&&&&&&&&@&+&&&@&@&&&&&&&&&&&",
"&&&&&&&&&&&&&&&&&&&&&&&&&&&&&&&",
"&&&&&&&&&&&&&&&&&&&&&&&&&&&&&&&",
"&&&&&&&&&&&&&&&&&&&&&&&&&&&&&&&",
"&&&&&&&&&&&&&&&&&&&&&&&&&&&&&&&",
"&&&&&&&&&&&&&&&&&&&&&&&&&&&&&&&",
"&&&&&&&&&&&&&&&&&&&&&&&&&&&&&&&",
"&&&&&&&&&&&&&&&&&&&&&&&&&&&=&&&",
"&&&&&&&&&&&&&&&&&&&&&&&&&&&==&&",
"&&&&&&&&&&&&&&&&&&&&&&&&&&&=&&&",
"&&&&&&&&&&&&&&&&&&&&&&&&&&&-=&&",
"&&&&&&&&&&&&&&&&&&&&&&&&&&&==&&",
"&&&&@&&&&&&&&&&&&&&&&&&&&&&==&&",
"&&&&&&&&&&&&&&&&&&&&&&&&&&&=&&&",
"&&&&&&&&&&&&&&&&&&&&&&&&&&&&&&&",
"&&&&&&&&&&&&&&&&&&&&&&&&&&&&&&&",
"&&&&&&&&&&&&&&&&&&&&&&&&&&&&&&&",
"&&&&&&&&&&&&&&&&&&&&&&&&&&&&&&&",
"&&&&&&&&&&&&&&&&&&&&&&&&&&&&&&&",
"&&&&&&&&&&&&&&&&&&&&&&&&&&&&&&&",
"&&&&&&&&&&&&&&&&&&&&&&&&&&&&&&&",
"&&&&&&&&&&&&&&&&&&&&&&&&&&&&&&&",
"&&&&&&&&&&&&=&&&&&&&=&&&&=&&=&&",
"+++++++++++++++++++++++++++++++",
"XXXXXXXXXXXXXXXXXXXXXXXXXXXXXXX",
"                               "
};
