/* XPM */
static char *minimizeI[] = {
/* columns rows colors chars-per-pixel */
"26 62 142 2 ",
"   c #816305",
".  c #836405",
"X  c #987506",
"o  c #997506",
"O  c #997606",
"+  c #9C7806",
"@  c #AB8200",
"#  c #AA8207",
"$  c #B08500",
"%  c #B68A00",
"&  c #B78A00",
"*  c #B78B00",
"=  c #BA8E05",
"-  c #BB8F05",
";  c #BB8F06",
":  c #B58C09",
">  c #B58C0A",
",  c #B68C0B",
"<  c #B68D0C",
"1  c #BB9006",
"2  c #BF9205",
"3  c #BF940C",
"4  c #BA9418",
"5  c #BB9418",
"6  c #BB9419",
"7  c #BF9C2B",
"8  c #BB992C",
"9  c #BC9A2F",
"0  c #BE9B2E",
"q  c #BE9C31",
"w  c #BF9D31",
"e  c #BF9D32",
"r  c #BF9F37",
"t  c #BFA13F",
"y  c #C09205",
"u  c #C29404",
"i  c #C49606",
"p  c #C59606",
"a  c #C69807",
"s  c #C79807",
"d  c #C89907",
"f  c #C59708",
"g  c #C69708",
"h  c #C0950D",
"j  c #C1950D",
"k  c #C69808",
"l  c #C99A08",
"z  c #CA9A08",
"x  c #CB9B08",
"c  c #CB9C08",
"v  c #CC9C08",
"b  c #CD9C08",
"n  c #CD9D08",
"m  c #C09D2D",
"M  c #C09D2E",
"N  c #C09F37",
"B  c #C09F38",
"V  c #BFA140",
"C  c #C0A140",
"Z  c #C1A448",
"A  c #C1A549",
"S  c #C2A54A",
"D  c #C6AC59",
"F  c #C7AC5A",
"G  c #CFB977",
"H  c #CFBB7B",
"J  c #CFBB7C",
"K  c #D0BB7C",
"L  c #B3B3B3",
"P  c #B9B9B9",
"I  c #CFBC80",
"U  c #D0BD82",
"Y  c #D0BE83",
"T  c #D0BE84",
"R  c #D4C79C",
"E  c #D4C79D",
"W  c #D5C79D",
"Q  c #D5C9A2",
"!  c #D5C9A3",
"~  c #D6C9A3",
"^  c #D6CAA3",
"/  c #D6CAA4",
"(  c #D6CBA4",
")  c #D7CBA5",
"_  c #D9CFB0",
"`  c #D9CFB1",
"'  c #D9D0B1",
"]  c #C2C2C2",
"[  c #C4C4C4",
"{  c #C6C6C6",
"}  c #C7C7C7",
"|  c #C8C8C8",
" . c #C9C9C9",
".. c #CACACA",
"X. c #CBCBCB",
"o. c #CCCCCC",
"O. c #CDCDCD",
"+. c #CECECE",
"@. c #CFCFCF",
"#. c #DDD7C2",
"$. c #DED6C2",
"%. c #DED7C3",
"&. c #DFD8C5",
"*. c #DFD9C7",
"=. c #D1D1D1",
"-. c #D2D2D2",
";. c #D3D3D3",
":. c #D4D4D4",
">. c #D5D5D5",
",. c #D6D6D6",
"<. c #D7D7D7",
"1. c #D8D8D8",
"2. c #D9D9D9",
"3. c #DADADA",
"4. c #DCDCDC",
"5. c #DEDEDE",
"6. c #DFDFDF",
"7. c #E0DACA",
"8. c #E0DBCB",
"9. c #E0DBCC",
"0. c #E3E2DD",
"q. c #E3E2DE",
"w. c #E4E3DF",
"e. c #E0E0E0",
"r. c #E1E1E1",
"t. c #E4E3E0",
"y. c #E5E4E3",
"u. c #E4E4E4",
"i. c #E5E5E4",
"p. c #E5E5E5",
"a. c #E5E5E6",
"s. c #E5E6E6",
"d. c #E5E6E7",
"f. c #E6E6E6",
"g. c #E7E7E7",
"h. c #E5E6E8",
"j. c #E6E6E8",
"k. c #E6E6E9",
"l. c #E6E7E9",
"z. c #E6E8EB",
"x. c #E6E8EC",
"c. c #E7E8ED",
/* pixels */
"p.p.p.p.p.p.p.p.p.p.p.p.p.p.p.p.p.p.p.p.p.p.p.p.p.p.",
"p.p.p.p.p.p.p.p.p.p.p.p.p.p.p.p.p.p.p.p.p.p.p.p.p.p.",
"p.p.p.p.p.p.p.p.p.p.p.p.p.p.p.p.p.p.p.p.p.p.p.p.p.p.",
"p.p.p.p.p.p.p.p.p.p.p.p.p.p.p.p.p.p.p.p.p.p.p.p.p.p.",
"p.p.p.p.p.p.p.p.p.p.p.p.p.p.p.p.p.p.p.p.p.p.p.p.p.p.",
"p.p.p.p.p.p.p.p.p.p.p.p.p.p.p.p.p.p.p.p.p.p.p.p.p.p.",
"p.p.p.p.p.p.p.p.u.p.p.p.g.g.p.p.p.p.p.p.p.p.p.p.p.p.",
"p.p.p.p.p.p.p.p.u.u.6.6.1.1.1.1.u.u.p.p.p.p.p.p.p.p.",
"p.p.p.p.p.p.p.p.6.,.X.] ] ] ] X.,.u.p.p.p.p.p.p.p.p.",
"p.p.p.p.p.p.u.1.} } X.=.,.=.=.+.} } 1.p.p.p.p.p.u.p.",
"p.p.p.p.p.p.1.X.X.+.,.,.1.1.,.,.+.} } ,.p.p.p.p.p.p.",
"p.p.p.p.u.u.+.] =.1.1.1.1.1.1.1.,.=.] +.u.p.p.p.p.p.",
"p.p.p.p.p.,.X.X.,.1.1.1.1.1.1.1.1.,.+.X.,.u.u.p.p.p.",
"p.p.p.p.p.X.X.,.1.1.1.1.1.1.1.1.1.1.,.} X.u.p.p.p.p.",
"p.p.p.p.u.X.X.,.1.1.1.1.1.1.1.1.1.1.,.X.X.u.p.p.p.p.",
"p.p.p.p.u.} } ,.1.1.1.1.1.1.1.1.1.,.,.X.} u.p.p.p.p.",
"p.p.p.p.u.} X.,.1.1.1.1.1.1.1.1.1.1.,.X.} u.p.p.p.p.",
"p.p.p.p.u.X.X.=.1.1.1.1.1.1.1.1.1.1.=.X.X.u.p.p.p.p.",
"p.p.p.p.u.,.X.X.1.1.1.1.1.1.1.1.1.,.+.X.,.u.p.p.p.p.",
"p.p.u.u.u.u.+.} =.1.1.1.1.1.,.1.1.=.] +.u.p.p.p.p.p.",
"p.p.p.p.p.p.,.X.X.+.,.,.1.1.1.,.=.} X.1.p.p.p.p.p.p.",
"p.p.p.p.p.p.p.1.} } +.=.=.,.=.+.} } 1.u.p.p.p.p.p.p.",
"p.p.p.p.p.p.p.u.6.,.} ] ] ] ] X.,.6.u.p.p.p.p.p.p.p.",
"p.p.p.p.p.p.p.p.p.6.6.1.1.1.1.6.u.u.p.p.p.p.p.p.p.p.",
"p.p.p.p.p.p.p.p.p.p.g.g.p.g.g.p.p.p.p.p.p.p.p.p.p.p.",
"p.p.p.p.p.p.p.p.p.p.p.p.p.p.p.p.p.p.p.p.p.p.p.p.p.p.",
"p.p.p.p.p.p.p.p.p.p.p.p.p.p.p.p.p.p.p.p.p.p.p.p.p.p.",
"p.p.p.p.p.p.p.p.p.p.p.p.p.p.p.p.p.p.p.p.p.p.p.p.p.p.",
"g.p.p.p.p.p.g.g.p.p.g.p.g.p.p.p.g.g.g.g.p.p.g.p.g.p.",
",.,.=.=.=.,.=.,.=.=.,.=.,.=.,.=.,.=.=.,.=.=.,.=.,.=.",
"P P P P P P P P P P P P P P P P P P P P P P P P P P ",
"6.6.6.6.6.6.6.6.6.6.6.6.6.6.6.6.6.6.6.6.6.6.6.6.6.6.",
"p.p.p.p.p.g.p.g.l.g.p.g.p.g.g.p.p.p.l.p.p.g.p.g.g.p.",
"p.p.p.p.p.p.p.p.p.p.p.p.p.p.p.p.p.p.p.p.p.p.p.p.p.p.",
"p.p.p.p.p.p.p.p.p.p.p.p.p.p.p.p.p.p.p.p.p.p.p.p.p.p.",
"p.p.p.p.p.p.p.p.p.p.p.p.p.p.p.p.p.p.p.p.p.p.p.p.p.p.",
"p.p.p.p.p.p.p.p.p.p.p.p.p.p.p.p.u.p.p.p.p.p.p.p.p.p.",
"p.p.p.p.p.p.p.p.p.l.l.c.c.c.c.c.l.l.p.p.p.p.p.p.p.p.",
"p.p.p.p.p.p.p.p.p.9._ ^ ^ ^ ^ ' *.p.l.p.p.p.p.p.p.p.",
"p.p.p.p.p.p.p.w.$.K N : : : : N H $.0.p.p.p.p.p.p.p.",
"p.p.p.p.p.p.t.) 9 6 j p p p p j 5 q ) u.t.p.p.p.p.p.",
"p.p.p.p.p.l.W r ; u d v n v l l u ; r R l.p.p.p.p.p.",
"p.p.p.p.u.*.F % f v v v n n n n v f & D *.p.p.p.p.p.",
"p.p.p.p.t.T M u v n v n n n n n v v u M I t.p.p.p.p.",
"p.p.p.l.0.Z ; s l l l l l l l l l l k ; Z 0.p.p.p.p.",
"p.p.p.l.0.t $ # X X X X X X X X X X # $ r 0.l.p.p.p.",
"p.p.p.p.w.t @ + . .     .           + @ C u.l.p.p.p.",
"p.p.p.l.w.C $ # X X X X X X X X X X # $ V 0.p.p.p.p.",
"p.p.p.l.0.Z = f d x d v l l l l l l f = Z w.l.u.p.p.",
"p.p.p.p.u.J 7 2 x n n n n n n n n v u M T t.p.p.p.p.",
"p.p.p.p.t.&.F % s x x x v v v v v p & F 7.p.p.p.p.p.",
"p.p.p.p.p.l.W N ; u d x v v v d u ; B W p.p.p.p.p.p.",
"p.p.p.p.p.p.t.) 9 4 3 p p p p j 5 9 ) t.p.p.p.p.p.p.",
"p.p.p.p.p.p.p.w.$.H 9 : < , > q H $.w.p.p.p.p.p.p.p.",
"p.p.p.p.p.p.p.p.p.7.` ^ ) ^ ^ ` 9.p.p.p.p.p.p.p.p.p.",
"p.p.p.p.p.p.p.p.p.l.l.c.c.c.c.c.l.p.p.p.p.p.p.p.p.p.",
"p.p.p.p.p.p.p.p.p.p.p.p.p.p.p.p.p.p.p.p.p.p.p.p.p.p.",
"p.p.p.p.p.p.p.p.p.p.p.p.p.p.p.p.p.p.p.p.p.p.p.p.p.p.",
"p.p.p.p.p.p.p.p.p.p.p.p.p.p.p.p.p.p.p.p.p.p.p.p.p.p.",
"g.g.g.p.g.g.g.p.g.g.g.g.g.g.g.p.g.g.g.p.g.g.g.p.g.g.",
":.:.:.;.:.=.:.:.:.:.:.:.=.:.:.:.:.:.;.:.;.;.;.:.:.:.",
"L L L L L L L L L L L L L L L L L L L L L L L L L L "
};
