/* XPM */
static char *minimizeA[] = {
/* columns rows colors chars-per-pixel */
"26 62 215 2 ",
"   c #816305",
".  c #836405",
"X  c #987506",
"o  c #997506",
"O  c #997606",
"+  c #9C7806",
"@  c #AB8100",
"#  c #AA8207",
"$  c #B08500",
"%  c #B68900",
"&  c #B68A00",
"*  c #B78A00",
"=  c #BA8E05",
"-  c #BA8F05",
";  c #BB8F05",
":  c #BB8F06",
">  c #B58C0A",
",  c #B68C0B",
"<  c #B68D0B",
"1  c #B68D0C",
"2  c #BB9006",
"3  c #BF9205",
"4  c #BC9006",
"5  c #BB9519",
"6  c #BC9519",
"7  c #BC951A",
"8  c #BD9B2F",
"9  c #BF9C31",
"0  c #BF9D31",
"q  c #C29403",
"w  c #C09205",
"e  c #C29404",
"r  c #C49606",
"t  c #C59606",
"y  c #C69806",
"u  c #C79806",
"i  c #C89907",
"p  c #C59708",
"a  c #C69708",
"s  c #C0950C",
"d  c #C0950D",
"f  c #C1950D",
"g  c #C69808",
"h  c #C99A08",
"j  c #CA9A08",
"k  c #CB9B08",
"l  c #CB9C08",
"z  c #CC9C08",
"x  c #CD9C08",
"c  c #CD9D08",
"v  c #EBB300",
"b  c #EBB301",
"n  c #ECB301",
"m  c #EEB607",
"M  c #EFB707",
"N  c #E7B30C",
"B  c #EEB708",
"V  c #EFB708",
"C  c #E8B30C",
"Z  c #E8B30D",
"A  c #E8B30E",
"S  c #EFB808",
"D  c #F0B701",
"F  c #F1B701",
"G  c #F2BA07",
"H  c #F3BA07",
"J  c #F6BC05",
"K  c #F6BC06",
"L  c #F7BE08",
"P  c #F2BB0E",
"I  c #F2BC0F",
"U  c #F3BC0F",
"Y  c #F8BE08",
"T  c #F8BF0A",
"R  c #F9BF0A",
"E  c #EBB91B",
"W  c #EBB91C",
"Q  c #C29E2E",
"!  c #C39F2F",
"~  c #C09D30",
"^  c #C39F30",
"/  c #C19E33",
"(  c #C19F34",
")  c #C29F34",
"_  c #C3A030",
"`  c #C2A13A",
"'  c #C2A13B",
"]  c #C3A23A",
"[  c #ECBF2F",
"{  c #E8BB30",
"}  c #E8BC32",
"|  c #E8BD33",
" . c #EABE32",
".. c #EDBF31",
"X. c #EBBF34",
"o. c #EABF36",
"O. c #EBBF36",
"+. c #F9C008",
"@. c #FAC008",
"#. c #FBC109",
"$. c #FAC10A",
"%. c #FBC10A",
"&. c #FDC30A",
"*. c #FEC30A",
"=. c #FEC40A",
"-. c #FFC40A",
";. c #EDC032",
":. c #EAC03B",
">. c #EBC03C",
",. c #EAC13C",
"<. c #C2A443",
"1. c #C3A443",
"2. c #C3A444",
"3. c #C5A84C",
"4. c #C5A84D",
"5. c #C5A94D",
"6. c #C6A94E",
"7. c #CBB15E",
"8. c #CBB15F",
"9. c #CCB15F",
"0. c #E8C044",
"q. c #E8C045",
"w. c #E8C145",
"e. c #E8C34D",
"r. c #E9C34E",
"t. c #E9C44E",
"y. c #E9C44F",
"u. c #EBC95F",
"i. c #EBCA5F",
"p. c #D5C07D",
"a. c #EBCA60",
"s. c #ECCA60",
"d. c #EED37E",
"f. c #D6C282",
"g. c #D7C383",
"h. c #D7C387",
"j. c #D7C589",
"k. c #D8C58B",
"l. c #EED583",
"z. c #EED584",
"x. c #EED588",
"c. c #EED68A",
"v. c #EED68C",
"b. c #DDCFA5",
"n. c #DDD0A5",
"m. c #DDD0A6",
"M. c #DED2AC",
"N. c #DFD2AC",
"B. c #DFD3AC",
"V. c #DFD3AD",
"C. c #EDDCA6",
"Z. c #EEDCA6",
"A. c #EEDDA7",
"S. c #E0D3AE",
"D. c #E0D4AE",
"F. c #EEDEAC",
"G. c #EFDEAC",
"H. c #EEDEAD",
"J. c #EEDFAE",
"K. c #EFDFAE",
"L. c #E3D9B9",
"P. c #E3D9BA",
"I. c #E3D9BB",
"U. c #E3DABB",
"Y. c #EFE2BA",
"T. c #EFE3BB",
"R. c #C0C0C0",
"E. c #C6C6C6",
"W. c #E8E2CD",
"Q. c #E8E2CE",
"!. c #F1E8CD",
"~. c #F0E8CE",
"^. c #F1E8CE",
"/. c #EAE4D0",
"(. c #EAE4D2",
"). c #EAE5D3",
"_. c #EBE6D5",
"`. c #EBE6D7",
"'. c #EBE7D7",
"]. c #F1E9D1",
"[. c #F1E9D2",
"{. c #F1EAD2",
"}. c #F1EAD3",
"|. c #F1EBD6",
" X c #F1EBD7",
".X c #F1EBD8",
"XX c #E0E0E0",
"oX c #EBEBEB",
"OX c #F0EEE9",
"+X c #F0EEEA",
"@X c #F0EFEA",
"#X c #F0EFEB",
"$X c #F2F0E9",
"%X c #F2F0EA",
"&X c #F2F0EB",
"*X c #F1F0EC",
"=X c #F1F0ED",
"-X c #F2F1ED",
";X c #F2F1F0",
":X c #F2F2F0",
">X c #F2F2F1",
",X c #F2F2F2",
"<X c #F2F2F3",
"1X c #F2F3F3",
"2X c #F3F3F3",
"3X c #F2F2F4",
"4X c #F2F3F4",
"5X c #F3F3F4",
"6X c #F2F3F6",
"7X c #F3F4F6",
"8X c #F4F4F4",
"9X c #F2F4F9",
"0X c #F2F4FA",
"qX c #F4F5F9",
"wX c #F4F6FA",
/* pixels */
",X,X,X,X,X,X,X,X,X,X,X,X,X,X,X,X,X,X,X,X,X,X,X,X,X,X",
",X,X,X,X,X,X,X,X,X,X,X,X,X,X,X,X,X,X,X,X,X,X,X,X,X,X",
",X,X,X,X,X,X,X,X,X,X,X,X,X,X,X,X,X,X,X,X,X,X,X,X,X,X",
",X,X,X,X,X,X,X,X,X,X,X,X,X,X,X,X,X,X,X,X,X,X,X,X,X,X",
",X,X,X,X,X,X,X,X,X,X,X,X,X,X,X,X,X,X,X,X,X,X,X,X,X,X",
",X,X,X,X,X,X,X,X,X,X,X,X,X,X,X,X,X,X,X,X,X,X,X,X,X,X",
",X,X,X,X,X,X,X,X,X3X0X0X0X0X0X0X3X3X,X,X,X,X,X,X,X,X",
",X,X,X,X,X,X,X3X,X.XY.H.H.K.K.T..X,X3X,X,X,X,X,X,X,X",
",X,X,X,X,X,X,X%X~.z.O.A N N N O.l.~.%X,X,X,X,X,X,X,X",
",X,X,X,X,X,X-XK.| W P Y %.%.L I E | K.-X,X,X,X,X,X,X",
",X,X,X,X,X3XZ.:.S K #.#.-.-.-.%.K S :.Z.5X,X,X,X,X,X",
",X,X,X,X,X}.a.v Y -.-.-.-.-.-.-.-.L v a.}.,X,X,X,X,X",
",X,X,X3X-Xv.;.H -.-.-.-.-.-.-.-.-.-.H ;.c.%X5X,X,X,X",
",X,X,X3X%Xy.M %.-.-.-.-.-.-.-.-.-.-.%.M y.%X5X,X,X,X",
",X,X,X3X@Xq.F -.-.-.-.-.-.-.-.-.-.-.#.F q.%X3X,X,X,X",
",X,X,X3X%Xq.F -.-.-.-.-.-.-.-.-.-.-.-.F q.oX3X,X,X,X",
",X,X,X3X%X0.n -.-.-.-.-.-.-.-.-.-.-.-.D q.%X5X,X,X,X",
",X,X,X3X%Xy.H %.-.-.-.-.-.-.-.-.-.-.%.S y.%X5X,X,X,X",
",X,X,X,X%Xc.[ H -.-.-.-.-.-.-.-.-.-.H ;.c.-X3X,X,X,X",
",X,X,X,X,X~.i.n Y -.-.-.-.-.-.-.-.+.b a.}.,X,X,X,X,X",
",X,X,X,X,X5XZ.:.B H %.#.-.-.-.%.K B >.Z.5X,X,X,X,X,X",
",X,X,X,X,X,X-XK.O.E U Y L %.L I E { K.-X3X,X,X,X,X,X",
",X,X,X,X,X,X,X%X~.d.| C N N N O.z.W.&X,X,X,X,X,X,X,X",
",X,X,X,X,X,X,X2X,X|.Y.G.H.H.H.T..X,X8X2X,X,X,X,X,X,X",
",X,X,X,X,X,X,X,X,X6X6X0X0X0X0X6X5X,X,X,X,X,X,X,X,X,X",
",X,X,X,X,X,X,X,X,X,X6X,X,X,X,X,X,X,X,X,X,X,X,X,X,X,X",
",X,X,X,X,X,X,X,X,X,X,X,X,X,X,X,X,X,X,X,X,X,X,X,X,X,X",
",X,X,X,X,X,X,X,X,X,X,X,X,X,X,X,X,X,X,X,X,X,X,X,X,X,X",
"8X8X8X8X8X5X8X8X6X6X6X3X8X8X8X5X8X8X8X8X2X8X8X5X8X2X",
"XXXXXXXXXXXXXXXXXX`.XXXXXXXXXXXXXXXXXXXXXXXXXXXXXXXX",
"E.E.E.E.E.E.E.E.E.E.E.E.E.E.E.E.E.E.E.E.E.E.E.E.E.E.",
"oXoXoXoXoXoXoXoXoXoXoXoXoXoXoXoXoXoXoXoXoXoXoXoXoXoX",
"2X2X2X2X8X2X2X2X2X2X2X2X2X2X2X2X5X5X2X2X2X2X2X2X2X2X",
",X,X,X,X,X,X,X,X,X,X,X,X,X,X,X,X,X,X2X,X,X,X,X,X,X,X",
",X,X,X,X,X,X,X,X,X,X,X,X,X,X,X,X,X,X,X,X,X,X,X,X,X,X",
",X,X,X,X,X,X,X,X,X,X,X,X,X,X,X,X,X,X,X,X,X,X,X,X,X,X",
",X,X,X,X,X,X,X,X,X,X3X3X,X,X,X,X,X,X,X,X,X,X,X,X,X,X",
",X,X,X,X,X,X,X2X,X5X0X0XqXqXqXqX5X,X,X,X,X,X,X,X,X,X",
",X,X,X,X,X,X,X8X,X.XU.B.B.B.S.U._.,X3X,X,X,X,X,X,X,X",
",X,X,X,X,X,X,XoXQ.f._ 1 1 1 1 _ f.Q.@X,X,X,X,X,X,X,X",
",X,X,X,X,X3X-XS.9 7 f r y y r f 6 9 S.#X,X,X,X,X,X,X",
",X,X,X,X,X5Xn.` : w i k x l l y r : ` b.5X,X,X,X,X,X",
",X,X,X,X,X).8.* p l x x x x x x k u * 8.).,X,X,X,X,X",
",X,X,X3X-Xj._ w l x x x x x x x x k w ! k.#X3X,X,X,X",
",X,X,X3X@X3.4 y k k k k k k k g k i k : 3.@X5X,X,X,X",
",X,X,X3X@X1.$ # X X X X X X X X X X # @ <.@X5X,X,X,X",
",X,X,X5X@X1.@ X                   . + @ 1.@X5X,X,X,X",
",X,X3X5X@X1.$ # X X X X X X X X X X # $ <.@X5X,X,X,X",
",X,X,X3X@X3.: r k k g k k k k i k k p : 6.@X3X,X,X,X",
",X,X,X3X-Xj.Q 3 x x x x k k x x k k w / k.-X3X,X,X,X",
",X,X,X,X,X).7.* y l x x k l x x k r * 9.).,X,X,X,X,X",
",X,X,X,X,X5Xn.` 4 q i l l x k i q : ` b.5X,X,X,X,X,X",
",X,X,X,X,X,X@XB.9 6 f e r i r f 6 8 S.-X,X,X,X,X,X,X",
",X,X,X,X,X,X,X@XQ.p./ , 1 1 , / f.Q.@X,X,X,X,X,X,X,X",
",X,X,X,X,X,X,X,X,X_.P.S.S.B.B.U.`.,X3X,X,X,X,X,X,X,X",
",X,X,X,X,X,X,X,X3X5XqXqXqXqXwXqX3X,X,X,X,X,X,X,X,X,X",
",X,X,X,X,X,X,X,X,X,X,X,X,X,X,X,X3X,X,X,X,X,X,X,X,X,X",
",X,X,X,X,X,X,X,X,X,X,X,X,X,X,X,X,X,X,X,X,X,X,X,X,X,X",
",X,X,X,X,X,X,X,X,X,X,X,X,X,X,X8X,X,X,X,X,X,X2X5X,X,X",
"8X8X8X8X8X8X8X8X8X8X8X8X8X8X8X8X8X8X8X5X8X8X8X8X8X8X",
"XXXXXXXXXXXXXXXXXXXXXXXXXXXXXXXXXXXXXXXXXXXXXXXXXXXX",
"R.R.R.R.R.R.R.R.R.R.R.R.R.R.R.R.R.R.R.R.R.R.R.R.R.R."
};
