/* XPM */
static char *minimizeO[] = {
/* columns rows colors chars-per-pixel */
"26 62 219 2 ",
"   c #816305",
".  c #836405",
"X  c #987506",
"o  c #997506",
"O  c #997606",
"+  c #9C7806",
"@  c #A27C07",
"#  c #A47E07",
"$  c #AB8100",
"%  c #AA8207",
"&  c #B08500",
"*  c #B68900",
"=  c #B68A00",
"-  c #B78A00",
";  c #BA8E05",
":  c #BA8F05",
">  c #BB8F05",
",  c #BB8F06",
"<  c #B58C0A",
"1  c #B68C0B",
"2  c #B68D0B",
"3  c #B68D0C",
"4  c #BB9006",
"5  c #BF9205",
"6  c #BC9006",
"7  c #BF9208",
"8  c #BF9308",
"9  c #BB9519",
"0  c #BC9519",
"q  c #BC951A",
"w  c #BD9B2F",
"e  c #BF9C31",
"r  c #BF9D31",
"t  c #C29403",
"y  c #C09205",
"u  c #C29404",
"i  c #C49606",
"p  c #C59606",
"a  c #C69806",
"s  c #C79806",
"d  c #C89907",
"f  c #C09408",
"g  c #C49608",
"h  c #C59708",
"j  c #C69708",
"k  c #C0950C",
"l  c #C0950D",
"z  c #C1950D",
"x  c #C69808",
"c  c #C99A08",
"v  c #CA9A08",
"b  c #CB9B08",
"n  c #CB9C08",
"m  c #CC9C08",
"M  c #CD9C08",
"N  c #CD9D08",
"B  c #DCA700",
"V  c #D5A408",
"C  c #E2AB00",
"Z  c #E2AC00",
"A  c #EBB300",
"S  c #EBB301",
"D  c #ECB301",
"F  c #EEB607",
"G  c #EEB707",
"H  c #E7B30C",
"J  c #EEB708",
"K  c #EFB708",
"L  c #E8B30C",
"P  c #E8B30D",
"I  c #E8B30E",
"U  c #F3BA07",
"Y  c #F6BC05",
"T  c #F6BC06",
"R  c #F7BE08",
"E  c #F2BB0E",
"W  c #F2BC0F",
"Q  c #F3BC0F",
"!  c #F8BE08",
"~  c #F8BF0A",
"^  c #F9BF0A",
"/  c #EBB91B",
"(  c #EBB91C",
")  c #C29E2E",
"_  c #C39F2F",
"`  c #C09D30",
"'  c #C39F30",
"]  c #C19E33",
"[  c #C19F34",
"{  c #C29F34",
"}  c #C3A030",
"|  c #C2A13A",
" . c #C2A13B",
".. c #C3A23A",
"X. c #ECBF2F",
"o. c #E8BB30",
"O. c #E8BC32",
"+. c #E8BD33",
"@. c #EABE32",
"#. c #EDBF31",
"$. c #EBBF34",
"%. c #EABF36",
"&. c #EBBF36",
"*. c #F9C008",
"=. c #FAC008",
"-. c #FBC109",
";. c #FCC20A",
":. c #FEC30A",
">. c #FEC40A",
",. c #FFC40A",
"<. c #FFC50A",
"1. c #EDC032",
"2. c #EAC03B",
"3. c #EBC03C",
"4. c #EAC13C",
"5. c #C2A443",
"6. c #C3A443",
"7. c #C3A444",
"8. c #C5A84C",
"9. c #C5A84D",
"0. c #C5A94D",
"q. c #C6A94E",
"w. c #CBB15E",
"e. c #CBB15F",
"r. c #CCB15F",
"t. c #E8C144",
"y. c #E9C145",
"u. c #E9C34E",
"i. c #E8C44D",
"p. c #E9C44E",
"a. c #E9C44F",
"s. c #EBC95F",
"d. c #EBCA5F",
"f. c #D5C07D",
"g. c #EBCA60",
"h. c #ECCA60",
"j. c #EED37E",
"k. c #D6C282",
"l. c #D7C383",
"z. c #D7C387",
"x. c #D7C589",
"c. c #D8C58B",
"v. c #EED583",
"b. c #EED584",
"n. c #EED588",
"m. c #EED68A",
"M. c #EED68C",
"N. c #DDCFA5",
"B. c #DDD0A5",
"V. c #DDD0A6",
"C. c #DED2AC",
"Z. c #DFD2AC",
"A. c #DFD3AC",
"S. c #DFD3AD",
"D. c #EDDCA6",
"F. c #EEDCA6",
"G. c #EEDDA7",
"H. c #E0D3AE",
"J. c #E0D4AE",
"K. c #EEDEAC",
"L. c #EFDEAC",
"P. c #EEDEAD",
"I. c #EEDFAE",
"U. c #EFDFAE",
"Y. c #E3D9B9",
"T. c #E3D9BA",
"R. c #E3D9BB",
"E. c #E3DABB",
"W. c #EFE2BA",
"Q. c #EFE3BB",
"!. c #C0C0C0",
"~. c #C6C6C6",
"^. c #E8E2CD",
"/. c #E8E2CE",
"(. c #F1E8CD",
"). c #F0E8CE",
"_. c #F1E8CE",
"`. c #EAE4D0",
"'. c #EAE4D2",
"]. c #EAE5D3",
"[. c #EBE6D5",
"{. c #EBE6D7",
"}. c #EBE7D7",
"|. c #F1E9D1",
" X c #F1E9D2",
".X c #F1EAD2",
"XX c #F1EAD3",
"oX c #F1EBD6",
"OX c #F1EBD7",
"+X c #F1EBD8",
"@X c #E0E0E0",
"#X c #EBEBEB",
"$X c #F0EEE9",
"%X c #F0EEEA",
"&X c #F0EFEA",
"*X c #F0EFEB",
"=X c #F2F0E9",
"-X c #F2F0EA",
";X c #F2F0EB",
":X c #F1F0EC",
">X c #F1F0ED",
",X c #F2F1ED",
"<X c #F2F1F0",
"1X c #F2F2F0",
"2X c #F2F2F1",
"3X c #F2F2F2",
"4X c #F2F2F3",
"5X c #F2F3F3",
"6X c #F3F3F3",
"7X c #F2F2F4",
"8X c #F2F3F4",
"9X c #F3F3F4",
"0X c #F2F3F6",
"qX c #F3F4F6",
"wX c #F4F4F4",
"eX c #F2F4F9",
"rX c #F2F4FA",
"tX c #F4F5F9",
"yX c #F4F6FA",
/* pixels */
"3X3X3X3X3X3X3X3X3X3X3X3X3X3X3X3X3X3X3X3X3X3X3X3X3X3X",
"3X3X3X3X3X3X3X3X3X3X3X3X3X3X3X3X3X3X3X3X3X3X3X3X3X3X",
"3X3X3X3X3X3X3X3X3X3X3X3X3X3X3X3X3X3X3X3X3X3X3X3X3X3X",
"3X3X3X3X3X3X3X3X3X3X3X3X3X3X3X3X3X3X3X3X3X3X3X3X3X3X",
"3X3X3X3X3X3X3X3X3X3X3X3X3X3X3X3X3X3X3X3X3X3X3X3X3X3X",
"3X3X3X3X3X3X3X3X3X3X3X3X3X3X3X3X3X3X3X3X3X3X3X3X3X3X",
"3X3X3X3X3X3X3X3X3X7XrXrXrXrXrXrX7X7X3X3X3X3X3X3X3X3X",
"3X3X3X3X3X3X3X7X3XOXW.P.P.P.P.Q.+X3X7X3X3X3X3X3X3X3X",
"3X3X3X3X3X3X3X&X).b.&.P I I I &.v.).&X3X3X3X3X3X3X3X",
"3X3X3X3X3X3X,XU.+.( E ^ *.*.^ Q / +.U.,X3X3X3X3X3X3X",
"3X3X3X3X3X7XD.3.K T -.-.<.;.<.*.T K 2.D.7X7X3X3X3X3X",
"3X3X3X3X3XXXg.S ^ <.<.<.<.<.<.<.<.*.S g.XX3X3X3X3X3X",
"3X3X3X7X,XM.1.U <.<.<.<.<.<.<.<.<.<.U 1.m.-X7X3X3X3X",
"3X3X3X7X-Xa.K *.;.-.;.;.;.;.;.;.*.-.*.G a.-X7X3X3X3X",
"3X3X3X7X&Xy.Z V f 7 7 7 7 7 7 f 7 f V Z y.-X7X3X3X3X",
"3X3X3X7X-Xy.B p # @ @ @ @ @ @ @ @ # h B y.-X7X3X3X3X",
"3X3X3X7X&Xy.C V f 7 7 7 f f 7 y 7 f V Z y.-X7X3X3X3X",
"3X3X3X7X&Xu.K ^ ;.;.;.;.;.-.-.-.-.-.*.J a.-X7X3X3X3X",
"3X3X3X3X,Xb.X.T <.<.<.<.<.<.<.<.<.<.U 1.m.,X7X3X3X3X",
"3X3X3X3X3XXXd.D ^ ;.<.<.<.<.<.<.<.*.S h.XX3X3X3X3X3X",
"3X3X3X3X3XwXF.3.K T *.-.<.<.-.-.U K 3.D.7X7X3X3X3X3X",
"3X3X3X3X3X3X&XU.&./ E ^ ^ ^ ^ Q / +.U.,X7X3X3X3X3X3X",
"3X3X3X3X3X3XwX&X).j.@.P P P L &.b.).&X3X3X3X3X3X3X3X",
"3X3X3X3X3X3X3X3X3XOXW.P.P.P.K.W.+X3X7X3X3X3X3X3X3X3X",
"3X3X3X3X3X3X3X3X3X7XrXrXrXrXrXrX7X3X3X3X3X3X3X3X3X3X",
"3X3X3X3X3X3X3X3X3X3X3X3X3X3X3X3X3X3X3X3X3X3X3X3X3X3X",
"3X3X3X3X3X3X3X3X3X3X3X3X3X3X3X3X3X3X3X3X3X3X3X3X3X3X",
"3X3X3X3X3X3X3X3X3X3X3X3X3X3X3X3X3X3X3X3X3X3X3X3X3X3X",
"wXwXwXwXwXwXwXwX7XwXwXwXwXwXwXwXwXwXwXwXwXwXwXwXwXwX",
"@X@X@X@X@X@X@X@X@X@X@X@X@X@X@X@X@X@X@X@X@X@X@X@X@X@X",
"~.~.~.~.~.~.~.~.~.~.~.~.~.~.~.~.~.~.~.~.~.~.~.~.~.~.",
"#X#X#X#X#X#X#X#X#X#X#X#X#X#X#X#X#X#X#X#X#X#X#X#X#X#X",
"3XwX3XwXwX3XwXwX3XwXwX3XwXwX3XwXwX7XwX3XwXwX3XwXwX3X",
"3X3X3X3X3X3X3X3X3X3X3X3X3X3X3X3X3X3X3X3X3X3X3X3X3X3X",
"3X3X3X3X3X3X3X3X3X3X3X3X3X3X3X3X3X3X3X3X3X3X3X3X3X3X",
"3X3X3X3X3X3X3X3X3X3X3X3X3X3X3X3X3X3X3X3X3X3X3X3X3X3X",
"3X3X3X3X3X3X3X3X3X3X3X3X3X3X3X3X3X3X3X3X3X3X3X3X3X3X",
"3X3X3X3X3X3X3X3X3X7XyXyXyXyXyXyX7X3X3X3X3X3X3X3X3X3X",
"3X3X3X3X3X3X3X3X3X}.E.C.C.C.C.T.[.3X7X3X3X3X3X3X3X3X",
"3X3X3X3X3X3X3X&X/.l.[ 3 3 3 1 [ k./.&X3X3X3X3X3X3X3X",
"3X3X3X3X3X3X,XJ.` q z p p p p z q e J.*X7X3X3X3X3X3X",
"3X3X3X3X3XqXN.| , y d m N N n d u 4 | N.qX3X3X3X3X3X",
"3X3X3X3X3X'.r.* h m N m N b N N N p * r.'.3X3X3X3X3X",
"3X3X3X7X,Xx.} y N N N N N N N N N N y ` x.,X7X3X3X3X",
"3X3X3X7X&X8.> x x b b b b b x b b b p > 8.&X7X3X3X3X",
"3X3X3X7X&X5.& % X X X X X X X X X X % & 5.&XwX3X3X3X",
"3X3X3X7X&X5.$ + .                 . + $ 7.&X7X7X3X3X",
"3X3X3XqX&X7.& % X X X X X X X X X X % & 5.&XwX3X3X3X",
"3X3X3X7X&X8.> x b b x b b x b b b a x 7 8.#XwX7X3X3X",
"3X3X3X7X,Xz.) 5 n n N N N N N N N n y ` c.*X7X3X3X3X",
"3X3X3X3X3X'.e.* x n M M N n n N n h * e.'.3X3X3X3X3X",
"3X3X3X3X3XqXV.| 5 t a m n N n d u > | V.wX3X3X3X3X3X",
"3X3X3X3X3X3X#XH.e q z p a a x z q e C.,X7X3X3X3X3X3X",
"3X3X3X3X3X3X3X-X/.f.w 2 3 3 2 ` k./.*X3X3X3X3X3X3X3X",
"3X3X3X3X3X3X3X3X3X[.T.C.C.C.C.T.[.3X7X3X3X3X3X3X3X3X",
"3X3X3X3X3X3X3X3X3XqXrXyXyXyXyXyX7X3X3X3X3X3X3X3X3X3X",
"3X3X3X3X3X3X3X3X3X3X3X3X3X3X3X3X7X3X3X3X3X3X3X3X3X3X",
"3X3X3X3X7X7X3X3X3X3X3X3X3X3X3X3X3X3X3X3X3X3X3X3X3X3X",
"3X3X3X3X0X#XrX#X3X3X3X3X3X3X3X3X3X3X3X3X3X3X3X7X3X3X",
"wXwXwXwX0X0XeXrX7X7X7X7XwXwXwXqXwXwXwXwXwXwXwXwXwXwX",
"@X@X@X@X@X@X@X@X@X@X@X@X@X@X@X@X@X@X@X@X@X@X@X@X@X@X",
"!.C.!.!.!.!.!.!.!.!.!.!.!.!.!.!.!.!.!.!.!.!.!.!.!.!."
};
