/* XPM */
static char *restoreI[] = {
/* columns rows colors chars-per-pixel */
"26 62 157 2 ",
"   c #0F4612",
".  c #104F14",
"X  c #125615",
"o  c #135D17",
"O  c #135E17",
"+  c #135F17",
"@  c #146018",
"#  c #146118",
"$  c #156419",
"%  c #166A1A",
"&  c #176E1B",
"*  c #176F1B",
"=  c #127617",
"-  c #127917",
";  c #127C17",
":  c #17711C",
">  c #127918",
",  c #137C18",
"<  c #137C19",
"1  c #18791D",
"2  c #19791D",
"3  c #1A7B1E",
"4  c #1B7D20",
"5  c #1C7D21",
"6  c #1D7C22",
"7  c #1D7E22",
"8  c #19821E",
"9  c #1A821F",
"0  c #1A831F",
"q  c #1A851F",
"w  c #1B851F",
"e  c #1A861F",
"r  c #19891E",
"t  c #1A891F",
"y  c #1B8120",
"u  c #1B8220",
"i  c #1B8320",
"p  c #1B8520",
"a  c #1A8620",
"s  c #1A8720",
"d  c #1C8421",
"f  c #1D8D22",
"g  c #1E8E23",
"h  c #1D9122",
"j  c #1E9123",
"k  c #1F9124",
"l  c #1F9324",
"z  c #1F9424",
"x  c #1F9525",
"c  c #208925",
"v  c #218A26",
"b  c #29872E",
"n  c #2A872F",
"m  c #2B882F",
"M  c #209525",
"N  c #3C8D40",
"B  c #3D8F41",
"V  c #3E8E42",
"C  c #3E8F43",
"Z  c #3B9040",
"A  c #3D9141",
"S  c #3E9242",
"D  c #409144",
"F  c #409245",
"G  c #419246",
"H  c #459349",
"J  c #469349",
"K  c #46934A",
"L  c #46944B",
"P  c #4D9551",
"I  c #4D9651",
"U  c #4E9652",
"Y  c #559958",
"T  c #559A59",
"R  c #569A5A",
"E  c #579B5A",
"W  c #65A368",
"Q  c #66A369",
"!  c #80B383",
"~  c #84B587",
"^  c #85B587",
"/  c #85B588",
"(  c #88B68B",
")  c #8BB78C",
"_  c #8CB88E",
"`  c #B3B3B3",
"'  c #B9B9B9",
"]  c #A2C2A4",
"[  c #A3C2A4",
"{  c #A3C2A5",
"}  c #A8C5A9",
"|  c #A8C5AA",
" . c #A9C5AA",
".. c #A9C6AB",
"X. c #AAC6AC",
"o. c #B4CBB5",
"O. c #B5CCB6",
"+. c #B5CCB7",
"@. c #C2C2C2",
"#. c #C4C4C4",
"$. c #C6C6C6",
"%. c #C7C7C7",
"&. c #C8C8C8",
"*. c #C9C9C9",
"=. c #CACACA",
"-. c #CBCBCB",
";. c #CCCCCC",
":. c #CDCDCD",
">. c #CECECE",
",. c #CFCFCF",
"<. c #C5D4C6",
"1. c #C4D5C6",
"2. c #C5D5C6",
"3. c #C6D5C6",
"4. c #C8D6C9",
"5. c #C9D7CA",
"6. c #CAD7CA",
"7. c #CAD7CB",
"8. c #CCD9CD",
"9. c #CED9CE",
"0. c #CED9CF",
"q. c #D1D1D1",
"w. c #D2D2D2",
"e. c #D3D3D3",
"r. c #D4D4D4",
"t. c #D5D5D5",
"y. c #D6D6D6",
"u. c #D7D7D7",
"i. c #D8D8D8",
"p. c #D9D9D9",
"a. c #DADADA",
"s. c #DCDCDC",
"d. c #DEDEDE",
"f. c #DFDFDF",
"g. c #DDE1DD",
"h. c #DDE1DE",
"j. c #DEE1DE",
"k. c #DFE2E0",
"l. c #E0E0E0",
"z. c #E1E1E1",
"x. c #E0E3E0",
"c. c #E1E3E1",
"v. c #E3E4E3",
"b. c #E4E4E4",
"n. c #E4E5E5",
"m. c #E5E5E5",
"M. c #E6E5E5",
"N. c #E6E5E6",
"B. c #E6E6E6",
"V. c #E7E6E6",
"C. c #E7E6E7",
"Z. c #E7E7E7",
"A. c #E8E7E8",
"S. c #E9E7E8",
"D. c #E9E7E9",
"F. c #EBE8EB",
"G. c #ECE9EC",
/* pixels */
"m.m.m.m.m.m.m.m.m.m.m.m.m.m.m.m.m.m.m.m.m.m.m.m.m.m.",
"m.m.m.m.m.m.m.m.m.m.m.m.m.m.m.m.m.m.m.m.m.m.m.m.m.m.",
"m.m.m.m.m.m.m.m.m.m.m.m.m.m.m.m.m.m.m.m.m.m.m.m.m.m.",
"m.m.m.m.m.m.m.m.m.m.m.m.m.m.m.m.m.m.m.m.m.m.b.m.m.m.",
"m.m.m.m.m.m.m.m.m.m.m.m.m.m.m.m.m.m.m.m.m.m.m.m.m.m.",
"m.m.m.m.m.m.m.m.m.m.m.m.m.m.m.m.m.m.m.m.m.m.m.m.m.m.",
"m.m.m.m.m.m.m.m.m.m.m.m.m.A.m.m.m.b.m.m.m.m.m.m.m.m.",
"m.m.m.m.m.m.m.m.m.v.s.a.a.a.a.s.v.b.m.m.m.m.m.m.m.m.",
"m.m.m.m.m.m.m.b.f.y.=.@.#.@.@.&.y.f.b.m.m.m.m.m.m.m.",
"m.m.m.m.m.m.b.a.%.&.,.,.q.q.q.,.%.%.a.b.m.m.m.m.m.m.",
"m.m.m.m.b.m.y.=.=.,.e.y.i.i.y.y.,.&.&.i.m.m.m.m.m.m.",
"m.m.m.m.b.v.,.#.q.y.i.a.i.i.i.i.i.q.@.,.v.m.m.m.m.m.",
"m.m.m.m.m.y.=.;.i.i.i.i.i.i.i.i.i.y.;.=.y.b.m.m.m.m.",
"m.m.m.m.m.=.=.y.i.i.i.i.i.i.i.i.i.i.e.&.=.b.m.m.m.m.",
"m.m.m.m.v.&.=.y.i.i.i.i.i.i.i.i.i.i.i.=.&.b.m.m.m.m.",
"m.m.m.m.v.&.=.y.i.i.i.i.i.i.i.i.i.i.i.=.&.b.m.m.m.m.",
"m.m.m.m.v.=.=.y.y.a.y.a.y.a.a.y.i.i.y.&.&.b.m.m.m.m.",
"m.m.m.m.v.=.=.q.a.y.a.y.a.u.u.a.i.i.e.&.=.b.m.m.m.m.",
"m.m.m.m.v.e.=.=.y.a.y.a.y.a.a.y.a.i.;.=.e.b.m.m.m.m.",
"m.m.m.m.m.f.,.%.q.y.a.u.a.y.y.a.i.q.#.,.v.m.m.m.m.m.",
"m.m.m.m.m.m.a.=.=.,.q.i.a.a.y.e.,.%.=.a.m.m.m.m.m.m.",
"m.m.m.m.m.m.m.a.%.%.,.q.q.q.q.,.%.%.a.b.m.m.m.m.m.m.",
"m.m.m.m.m.m.m.m.s.q.%.@.@.@.@.=.y.f.b.m.m.m.m.b.m.m.",
"m.m.m.m.m.m.m.m.m.v.s.a.a.a.a.s.f.m.m.m.m.m.m.m.m.m.",
"m.m.m.m.m.m.m.m.m.m.Z.Z.m.Z.Z.m.m.m.m.m.m.m.m.m.m.m.",
"m.m.m.m.m.m.m.m.m.m.m.m.m.m.m.m.m.m.m.m.m.m.m.m.m.m.",
"m.m.m.m.m.m.m.m.m.m.m.m.m.m.m.m.m.m.m.m.m.m.m.m.m.m.",
"m.m.m.m.m.m.m.m.m.m.m.m.m.m.m.m.m.m.m.m.m.m.m.m.m.m.",
"m.F.m.A.m.A.m.F.m.A.A.m.F.m.A.m.Z.Z.Z.Z.A.m.F.Z.m.A.",
"e.q.y.e.y.q.e.e.e.e.e.e.q.e.e.y.e.e.e.e.e.e.q.r.e.e.",
"' ' ' ' ' ' ' ' ' ' ' ' ' ' ' ' ' ' ' ' ' ' ' ' ' ' ",
"s.j.s.s.v.s.j.s.s.v.s.f.s.j.s.s.v.s.j.s.f.s.f.f.s.f.",
"m.F.m.m.Z.Z.m.Z.Z.m.Z.m.Z.Z.m.Z.Z.m.Z.m.Z.Z.m.Z.Z.m.",
"m.m.m.m.m.m.m.m.m.m.m.m.m.m.m.m.m.m.n.m.m.m.m.m.m.m.",
"m.m.m.m.m.m.m.m.m.m.m.m.m.m.m.m.m.m.m.m.m.m.m.m.m.m.",
"m.m.m.m.m.m.m.m.m.m.m.m.m.m.m.m.m.m.m.m.m.m.m.m.m.m.",
"m.m.m.m.m.m.m.m.m.m.m.m.m.m.m.m.n.n.m.m.m.m.m.m.m.m.",
"m.m.m.m.m.m.m.m.m.A.F.G.G.G.G.G.F.m.m.m.m.m.m.m.m.m.",
"m.m.m.m.m.m.m.m.m.0.+.| | | | +.9.m.m.m.m.m.m.m.m.m.",
"m.m.m.m.m.m.m.j.3./ F 7 7 7 7 F ^ 3.j.m.m.m.m.m.m.m.",
"m.m.m.m.m.m.c.X.V m v p 2 2 p v m V | c.m.m.m.m.m.m.",
"m.m.m.m.m.F.[ H 0 t j d % % p j t 9 H [ F.m.m.m.m.m.",
"m.m.m.m.c.7.Q , f l M y # # y M z f ; W 7.c.m.m.m.m.",
"m.m.m.m.c._ S p l M M y # # y M z z 9 S ( c.Z.m.m.m.",
"m.m.m.Z.j.T 0 f l l l y # + y l j j f 0 T j.A.m.m.m.",
"m.m.m.A.j.U > 2 * * * $ . . $ * * * 3 > U j.A.m.m.m.",
"m.m.m.m.j.U = * o o + X     X + o o : = U j.m.m.m.m.",
"m.m.m.F.j.U > 2 * * * $ . . $ * * * 2 - P j.m.m.m.m.",
"m.m.m.m.j.T 9 f j l l y # # y M l l f p E j.m.m.m.m.",
"m.m.m.m.c.( Z s l l M y # # y M l l s S _ c.m.m.m.m.",
"m.m.m.m.c.4.Q , f l M p # + y M l f , Q 7.m.m.m.m.m.",
"m.m.m.m.m.F.[ H 0 t j d % % d j 9 9 H { F.m.m.m.m.m.",
"m.m.m.m.m.m.k.| V b v 9 1 2 p v b V | c.m.m.m.m.m.m.",
"m.m.m.m.m.m.m.j.<.! V 3 6 7 7 S ^ 3.k.m.m.m.m.m.m.m.",
"m.m.m.m.m.m.m.m.m.0.+.| | | } +.0.m.m.m.m.m.m.m.m.m.",
"m.m.m.m.m.m.m.m.m.A.A.G.G.G.G.F.A.m.m.m.m.m.m.m.m.m.",
"m.m.m.m.m.m.m.m.m.m.m.m.m.m.m.m.m.m.m.m.m.m.m.m.m.m.",
"m.m.m.m.m.m.m.m.m.m.m.m.m.m.m.m.m.m.m.m.m.m.m.m.m.m.",
"m.m.m.m.m.m.m.m.m.m.m.m.m.m.m.m.m.m.m.m.m.m.m.m.m.m.",
"Z.Z.Z.Z.Z.Z.Z.m.Z.Z.Z.Z.Z.Z.Z.Z.Z.Z.Z.m.Z.Z.Z.m.Z.Z.",
"y.e.e.r.e.e.e.r.r.r.e.e.r.e.e.e.y.e.e.e.e.e.r.e.y.e.",
"` ` ` ` ` ` ` ` ` ` ` ` ` ` ` ` ` ` ` ` ` ` ` ` ` ` "
};
