/* XPM */
static char *restoreA[] = {
/* columns rows colors chars-per-pixel */
"26 62 233 2 ",
"   c #0F4612",
".  c #104F14",
"X  c #125615",
"o  c #135D17",
"O  c #135E17",
"+  c #135F17",
"@  c #146018",
"#  c #146118",
"$  c #156419",
"%  c #166A1A",
"&  c #176E1B",
"*  c #176F1B",
"=  c #117517",
"-  c #117817",
";  c #127917",
":  c #117B16",
">  c #117C16",
",  c #17711C",
"<  c #137C18",
"1  c #18791D",
"2  c #1A7B1E",
"3  c #1C7D20",
"4  c #1C7D21",
"5  c #1D7C22",
"6  c #1E7C22",
"7  c #1D7E22",
"8  c #19821E",
"9  c #1A821F",
"0  c #1A831F",
"q  c #1A851F",
"w  c #1B851F",
"e  c #1A861F",
"r  c #1A871F",
"t  c #19881E",
"y  c #19891E",
"u  c #1B8120",
"i  c #1B8220",
"p  c #1B8320",
"a  c #1B8520",
"s  c #1C8421",
"d  c #1D8D22",
"f  c #1E8E23",
"g  c #1D9122",
"h  c #1D9123",
"j  c #1E9123",
"k  c #1F9124",
"l  c #1F9324",
"z  c #1F9424",
"x  c #1F9525",
"c  c #218A26",
"v  c #228A26",
"b  c #228A27",
"n  c #2A882F",
"m  c #209525",
"M  c #2B8830",
"N  c #2C8930",
"B  c #1CB124",
"V  c #1EB125",
"C  c #1EB126",
"Z  c #1EB626",
"A  c #1FB626",
"S  c #1FB627",
"D  c #23B62B",
"F  c #24B52B",
"G  c #24B62B",
"H  c #27B02E",
"J  c #24B62C",
"K  c #25B62C",
"L  c #25B62D",
"P  c #28B12F",
"I  c #23BC2B",
"U  c #24BC2B",
"Y  c #24B92C",
"T  c #24BA2C",
"R  c #24BD2C",
"E  c #26BF2E",
"W  c #29B130",
"Q  c #2BBB32",
"!  c #2BBB33",
"~  c #34B73B",
"^  c #35B73C",
"/  c #35B83C",
"(  c #27C02F",
")  c #27C12F",
"_  c #27C22F",
"`  c #28C02F",
"'  c #28C230",
"]  c #29C531",
"[  c #29C631",
"{  c #29C731",
"}  c #3E8F42",
"|  c #3D9342",
" . c #3F9243",
".. c #409343",
"X. c #409044",
"o. c #419145",
"O. c #419445",
"+. c #429446",
"@. c #439447",
"#. c #449448",
"$. c #48964C",
"%. c #48974D",
"&. c #49974D",
"*. c #509854",
"=. c #509954",
"-. c #519954",
";. c #519955",
":. c #589D5C",
">. c #599E5C",
",. c #5A9E5D",
"<. c #5A9E5E",
"1. c #47B94D",
"2. c #47BD4D",
"3. c #49BB4F",
"4. c #48BC4E",
"5. c #48BE4E",
"6. c #49BE4F",
"7. c #49BF4F",
"8. c #4ABB50",
"9. c #4BBD51",
"0. c #4CBD52",
"q. c #4DBD53",
"w. c #51BE56",
"e. c #51BF57",
"r. c #52BF58",
"t. c #58BE5D",
"y. c #59BE5E",
"u. c #6AA86D",
"i. c #6BA86E",
"p. c #60C165",
"a. c #61C166",
"s. c #62C267",
"d. c #71C875",
"f. c #71C876",
"g. c #72C876",
"h. c #87B98A",
"j. c #8BBB8D",
"k. c #8CBC8E",
"l. c #8CBC8F",
"z. c #8FBD92",
"x. c #92BE93",
"c. c #93BF95",
"v. c #8CD290",
"b. c #90D494",
"n. c #91D494",
"m. c #91D495",
"M. c #94D498",
"N. c #96D599",
"B. c #98D59B",
"V. c #ABCAAD",
"C. c #ABCBAD",
"Z. c #ACCBAD",
"A. c #B1CEB2",
"S. c #B1CEB3",
"D. c #B2CFB3",
"F. c #B3CFB4",
"G. c #B3CFB5",
"H. c #AFDBB1",
"J. c #AFDCB2",
"K. c #B3D0B5",
"L. c #B4DDB6",
"P. c #B5DDB7",
"I. c #B4DEB7",
"U. c #BED5BF",
"Y. c #B6DEB8",
"T. c #B6DFB9",
"R. c #BFD6C0",
"E. c #BFD6C1",
"W. c #C0C0C0",
"Q. c #C6C6C6",
"!. c #D0DFD0",
"~. c #C0E2C2",
"^. c #C1E2C3",
"/. c #C2E2C3",
"(. c #C2E2C4",
"). c #D0E0D1",
"_. c #D1E0D1",
"`. c #D1E0D2",
"'. c #D2E7D3",
"]. c #D3E2D4",
"[. c #D5E2D5",
"{. c #D5E3D6",
"}. c #D1E8D3",
"|. c #D2E8D3",
" X c #D5E9D6",
".X c #D6E9D7",
"XX c #D6EAD7",
"oX c #D8E4D9",
"OX c #D9E5DA",
"+X c #DAE5DA",
"@X c #D7EAD8",
"#X c #D9EADA",
"$X c #DAEBDB",
"%X c #DBEBDB",
"&X c #DBEBDC",
"*X c #E0E0E0",
"=X c #EBEBEB",
"-X c #EAEDEA",
";X c #EAEEEA",
":X c #EAEFEA",
">X c #EBEEEB",
",X c #EAEFEB",
"<X c #ECEFEC",
"1X c #EDEFED",
"2X c #EBF0EB",
"3X c #ECF0ED",
"4X c #EDF0ED",
"5X c #EDF1ED",
"6X c #EEF0ED",
"7X c #EEF0EE",
"8X c #EEF1EE",
"9X c #F0F1F0",
"0X c #F1F2F1",
"qX c #F1F2F2",
"wX c #F2F2F2",
"eX c #F3F2F2",
"rX c #F3F2F3",
"tX c #F3F3F3",
"yX c #F4F2F3",
"uX c #F4F3F3",
"iX c #F4F2F4",
"pX c #F4F3F4",
"aX c #F5F3F5",
"sX c #F6F3F5",
"dX c #F6F3F6",
"fX c #F4F4F4",
"gX c #F5F4F5",
"hX c #F5F4F6",
"jX c #F6F4F6",
"kX c #F8F4F8",
"lX c #F8F5F8",
"zX c #F9F4F9",
"xX c #FAF6FA",
/* pixels */
"wXwXwXwXwXwXwXwXwXwXwXwXwXwXwXwXwXwXwXwXwXwXwXwXwXwX",
"wXwXwXwXwXwXwXwXwXwXwXwXwXwXwXwXwXwXwXwXwXwXwXwXwXwX",
"wXwXwXwXwXwXwXwXwXwXwXwXwXwXwXwXwXwXwXwXwXwXwXwXwXwX",
"wXwXwXwXwXwXwXwXwXwXwXwXwXwXwXwXwXwXwXwXwXwXwXwXwXwX",
"wXwXwXwXwXwXwXwXwXwXwXwXwXwXwXwXwXwXwXwXwXwXwXwXwXwX",
"wXwXwXwXwXwXwXwXwXwXwXwXwXwXwXwXwXwXwXwXwXwXwXwXwXwX",
"wXwXwXwXwXwXwXwXwXaXkXzXzXzXzXkXaXwXwXwXwXwXwXwXwXwX",
"wXwXwXwXwXwXwXwXwX&X^.P.P.P.P.^.$XwXwXwXwXwXwXwXwXwX",
"wXwXwXwXwXwXwX2X|.m.q.P P W P q.v.'.:XwXwXwXwXwXwXwX",
"wXwXwXwXwXwX4XT.3./ ! E E _ E ! ^ 3.T.4XwXwXwXwXwXwX",
"wXwXwXwXwXaXH.w.F E ' [ [ [ [ _ E J w.H.aXwXwXwXwXwX",
"wXwXwXwXwX@Xf.B E [ [ [ [ [ [ [ [ E B f. XwXwXwXwXwX",
"wXwXwXaX4XN.6.T [ [ [ [ [ [ [ [ [ [ J 6.N.<XwXwXwXwX",
"wXwXwXwX2Xs.J ' [ [ [ [ [ [ [ [ [ [ ' F s.:XaXwXwXwX",
"wXwXwXaX2Xy.Z [ [ [ [ [ [ [ [ [ [ [ [ Z y.:XaXwXwXwX",
"wXwXwXaX2Xy.Z [ [ [ [ [ [ [ [ [ [ [ _ D y.:XaXwXwXwX",
"wXwXwXyX2Xy.Z [ [ [ [ [ [ [ [ [ [ [ [ Z y.2XyXwXwXwX",
"wXwXwXfX2Xs.F ` [ [ [ [ [ [ [ [ [ [ _ J s.2XyXwXwXwX",
"wXwXwXwX4XM.2.T [ [ [ [ [ [ [ [ [ [ T 6.B.4XwXwXwXwX",
"wXwXwXwX9X Xf.B E [ [ [ [ [ [ [ [ ' B f. XwXwXwXwXwX",
"wXwXwXwXwXaXH.w.F U ` [ [ [ [ _ T F w.L.yXwXwXwXwXwX",
"wXwXwXwXwXwX4XP.3.^ Q _ _ ` E ! ^ 1.T.4XwXwXwXwXwXwX",
"wXwXwXwXwXwXwX2X'.v.3.H P P H 9.m.'.2XwXwXwXwXwXwXwX",
"wXwXwXwXwXwXwXwX9X$X^.P.P.P.P.^.$XwXyXwXwXwXwXwXwXwX",
"wXwXwXwXwXwXwXwXwXaXzXzXzXzXzXkXaXwXwXwXwXwXwXwXwXwX",
"wXwXwXwXwXwXwXwXwXwXwXwXwXwXwXwXwXwXwXwXwXwXwXwXwXwX",
"wXwXwXwXwXwXwXwXwXwXwXwXwXwXwXwXwXwXwXwXwXwXwXwXwXwX",
"wXwXwXwXwXwXwXwXwXwXwXwXwXwXwXwXwXwXwXwXwXwXwXwXwXwX",
"fXtXfXfXfXfXfXfXyXyXyXfXfXyXfXfXfXfXfXfXfXfXfXyXfXfX",
"*X*X*X*X*X*X*X*X*X*X*X*X*X*X*X*X*X*X*X*X*X*X*X*X*X*X",
"Q.Q.Q.Q.Q.Q.Q.Q.Q.Q.Q.Q.Q.Q.Q.Q.Q.Q.Q.Q.Q.Q.Q.Q.Q.Q.",
"=X=X=X=X=X=X=X=X=X=X=X=X=X:X=X=X=X=X=X=X=X=X=X=X=X=X",
"wXfXwXfXyXyXtXtXtXtXtXtXtXtXtXtXiXwXfXiXtXtXtXtXtXtX",
"wXwXwXwXwXwXwXwXwXwXwXwXwXwXwXwXwXwXwXwXwXwXwXwXwXwX",
"wXwXwXwXwXwXwXwXwXwXwXwXwXwXwXwXwXwXwXwXwXwXwXwXwXwX",
"wXwXwXwXwXwXwXwXwXwXwXwXwXwXwXwXwXwXwXwXwXwXwXwXwXwX",
"wXwXwXwXwXwXwXwXwX0X0X0XwXtXwXwXwXwXwXwXwXwXwXwXwXwX",
"wXwXwXwXwXwXwXwXwXaXzXzXzXxXxXkXaXwXwXwXwXwXwXwXwXwX",
"wXwXwXwXwXwXwXyXwX+X~.A.D.D.K.U.OXwXiXwXwXwXwXwXwXwX",
"wXwXwXwXwXwXwX:X!.k.#.6 6 6 u @.j.!.:XwXwXwXwXwXwXwX",
"0XeX0XeXwXtX4XK.o.N b a 1 1 a b M  .G.<XiXwXwXwX0XeX",
"eX0XeXeXwXgXC.$.9 r k s % % a k y 9 $.C.gXwXwXwXeX0X",
"0XeXeXeX9X[.u.> d k m u # # i x k d > u.{.wXiXwXeX0X",
"eX0XeXdX=Xv.@.y m k m u # # i x x x a  .x.<XiXwX0XeX",
"0XeX0XdX:X:.9 v d m m u @ @ 9 m k f f 9 :.=XeXeXeX0X",
"eX0X0XdX=X;.= 1 * & * # . . # & * * 1 ; *.=XdXeX0XeX",
"0X0X0XdX:X;.= , O O O X     X O + + , = *.:XeX0XeX0X",
"eX0X0X0X:X;.; 1 * * , $ . . # * * * 1 - *.=XdX0XeXeX",
"0XeX0XdX=X:.9 d k k x i + @ i x k k d 9 :.=XdX0X0XeX",
"eX0X0XdX=Xz.| r k x x i @ @ i x x k r @.M.=X0X0XeX0X",
"0X0X0XeXwX].u.> d k m i @ @ i x k d < u.!.0X0X0X0XeX",
"dX0X0X0XwXgXC.%.9 r k a % % a k y 9 %.C.zXeX0XeXeXeX",
"wXwXwXwXwXwX=XK. .n b a 1 1 r b N } G.<XeX0XeX0XeX0X",
"wXwXwXwXwXwXwX:X).h.| 3 6 6 3 @.z.!.=X0XeXeX0XeX0XeX",
"wXwXwXwXwXwXwXwXwXoXU.D.D.D.D.R.+X0XdX0X0XeXeX0X0X0X",
"wXwXwXwXwXwXwXwXwXgXlXxXzXzXzXzXaXwXeX0XeX0XeXeX0X0X",
"wXwXwXwXeX0XeXeX0XeX0XeXwXwXwXwXwXwXwXwX0XeX0X0XeX0X",
"wXwXwXwX0XeXeX0XeX0XeX0XwXwXwXwXwXwXwXwXeX0XeXeX0XeX",
"wXwXwXwX0X0X0X0X0X0X0XeXwXwX0X0XwXwXwXwXeXeXeX0X0X0X",
"fXfXfXfXdXyXyXyXdX0XdXdXiXiXaXaXfXiXiXiXyXyXyXyXdXdX",
"*X*X*X*X*X*X*X*X*X*X*X*X*X*X*X*X*X*X*X*X*X*X*X*X*X*X",
"W.U.W.W.W.W.W.W.W.W.W.W.W.W.W.W.W.R.W.W.W.W.W.W.W.W."
};
