/* XPM */
static char *titleIJ[] = {
/* columns rows colors chars-per-pixel */
"9 31 23 1 ",
"  c #B1B1B1",
". c #B2B2B2",
"X c #B3B3B3",
"o c #BCBCBC",
"O c #BDBDBD",
"+ c #BEBEBE",
"@ c #CBCBCB",
"# c #CFCFCF",
"$ c #D2D2D2",
"% c #D3D3D3",
"& c #D4D4D4",
"* c #D7D7D7",
"= c #DDDDDD",
"- c #DEDEDE",
"; c #DFDFDF",
": c #E0E0E0",
"> c #E1E1E1",
", c #E2E2E2",
"< c #E4E4E4",
"1 c #E5E5E5",
"2 c #E6E6E6",
"3 c #E7E7E7",
"4 c None",
/* pixels */
"4.+%22:22",
".+#-22222",
".@:22:222",
"+*2222222",
"%-222:2::",
"-:2222222",
"-:2222:22",
":22222222",
":22222222",
":2:22:222",
":22222222",
":222:2:2:",
"::2222222",
"2222:2222",
":22222:22",
"::2222222",
"222222222",
"::22:2222",
"2222222:2",
":22:22222",
":2:2:2222",
":22222:22",
":2222222:",
":222:2222",
"::22:2222",
"22222222:",
":22222:22",
"::2222222",
"222233222",
"%%%%%*%**",
"........."
};
