/* XPM */
static char *titleAB[] = {
/* columns rows colors chars-per-pixel */
"1 31 4 1 ",
"  c #C0C0C0",
". c #E0E0E0",
"X c gray95",
"o c #F4F4F4",
/* pixels */
"X",
"X",
"X",
"X",
"X",
"X",
"X",
"X",
"X",
"X",
"X",
"X",
"X",
"X",
"X",
"X",
"X",
"X",
"X",
"X",
"X",
"X",
"X",
"X",
"X",
"X",
"X",
"X",
"o",
".",
" "
};
