/* XPM */
static char *titleAQ[] = {
/* columns rows colors chars-per-pixel */
"9 31 23 1 ",
"  c #BEBEBE",
". c #BFBFBF",
"X c #C0C0C0",
"o c #C9C9C9",
"O c #CACACA",
"+ c #CBCBCB",
"@ c #D8D8D8",
"# c #DCDCDC",
"$ c #DFDFDF",
"% c #E0E0E0",
"& c #E1E1E1",
"* c #E4E4E4",
"= c #EAEAEA",
"- c #EBEBEB",
"; c #ECECEC",
": c #EDEDED",
"> c #EEEEEE",
", c #EFEFEF",
"< c #F1F1F1",
"1 c #F2F2F2",
"2 c #F3F3F3",
"3 c #F4F4F4",
"4 c None",
/* pixels */
"11111$O 4",
"11111>$O ",
"111111>@X",
"1111111*O",
"1111111-$",
"1111111>-",
"11111111>",
"11111111>",
"11111111>",
"11111111>",
"1111111>>",
"11111111>",
"111111111",
"11111111>",
"11111111>",
"11111111>",
"11111111>",
"1111111>>",
"11111111>",
"111111111",
"11111111>",
"1111111>>",
"11111111>",
"111111111",
"11111111>",
"11111111>",
"11111111>",
"11111111>",
"113333311",
"&&&&&&&&$",
"XXXX XXX "
};
