/* XPM */
static char *titleIB[] = {
/* columns rows colors chars-per-pixel */
"1 31 4 1 ",
"  c #B3B3B3",
". c #D3D3D3",
"X c gray90",
"o c #E7E7E7",
/* pixels */
"X",
"X",
"X",
"X",
"X",
"X",
"X",
"X",
"X",
"X",
"X",
"X",
"X",
"X",
"X",
"X",
"X",
"X",
"X",
"X",
"X",
"X",
"X",
"X",
"X",
"X",
"X",
"X",
"X",
".",
" "
};
