/* XPM */
static char *titleAJ[] = {
/* columns rows colors chars-per-pixel */
"9 31 23 1 ",
"  c #BEBEBE",
". c #BFBFBF",
"X c #C0C0C0",
"o c #C9C9C9",
"O c #CACACA",
"+ c #CBCBCB",
"@ c #D8D8D8",
"# c #DCDCDC",
"$ c #DFDFDF",
"% c #E0E0E0",
"& c #E1E1E1",
"* c #E4E4E4",
"= c #EAEAEA",
"- c #EBEBEB",
"; c #ECECEC",
": c #EDEDED",
"> c #EEEEEE",
", c #EFEFEF",
"< c #F1F1F1",
"1 c #F2F2F2",
"2 c #F3F3F3",
"3 c #F4F4F4",
"4 c None",
/* pixels */
"4.+%22222",
".+#-2;2;2",
".#;222222",
"o*2222222",
"$-2;222;2",
"-;2222222",
";2222;22;",
";22222222",
";22222222",
";;2222;22",
"222222222",
";222;2222",
";;22222;2",
"222222222",
";2222;222",
";;222222;",
"222;22222",
";2222222;",
";;2222;22",
"222222222",
";222;2222",
"2;2222222",
";22222;22",
";22;22222",
";;222222;",
"222222222",
";2222;222",
"2;2222222",
";33333332",
"$%%%%%%%%",
".XXXXXXX."
};
