/* XPM */
static char *collapse[] = {
/* width height ncolors chars_per_pixel */
"20 20 66 1",
/* colors */
"  c #363636",
". c #5B5B5B",
"X c #C6C6C6",
"o c #6D6D6D",
"O c #D8D8D8",
"+ c #383838",
"@ c #5C5C5C",
"# c #6E6E6E",
"$ c #D9D9D9",
"% c #C8C8C8",
"& c #282828",
"* c #939393",
"= c #3A3A3A",
"- c #A5A5A5",
"; c #C9C9C9",
": c #828282",
"> c #292929",
", c #CACACA",
"< c #717171",
"1 c #DCDCDC",
"2 c #EEEEEE",
"3 c #2A2A2A",
"4 c #959595",
"5 c #3C3C3C",
"6 c #4E4E4E",
"7 c #727272",
"8 c #191919",
"9 c #EFEFEF",
"0 c #969696",
"q c #A8A8A8",
"w c #737373",
"e c #979797",
"r c #3E3E3E",
"t c #505050",
"y c #868686",
"u c #F1F1F1",
"i c #3F3F3F",
"p c #515151",
"a c #BCBCBC",
"s c #1C1C1C",
"d c #F2F2F2",
"f c #404040",
"g c #ABABAB",
"h c #525252",
"j c #BDBDBD",
"k c #E1E1E1",
"l c #E2E2E2",
"z c #1E1E1E",
"x c #ADADAD",
"c c #8A8A8A",
"v c #313131",
"b c #9C9C9C",
"n c #E4E4E4",
"m c #202020",
"M c #444444",
"N c #E5E5E5",
"B c #212121",
"V c #333333",
"C c #454545",
"Z c #222222",
"A c #343434",
"S c #9F9F9F",
"D c #464646",
"F c #C3C3C3",
"G c #474747",
"H c #C4C4C4",
/* pixels */
"dddddddddddddddddddd",
"dddddda<p5h7jddddddd",
"dddd;i8888888i,ddddd",
"ddd-m888888888Bqdddd",
"ddFz88888888888zXddd",
"d9A88883y&888888 9dd",
"dg88888Cu%&888888xdd",
"d.888888ou%&88888@dd",
"d+8888888#u;>8888=dd",
"dm88888888cd08888Bdd",
"dv8888888flnM8888Vdd",
"d6888888ikND88888tdd",
"d*88888vkNG8888884dd",
"dnZ8888rHG888888ZNdd",
"ddb8888888888888Sddd",
"ddd<88888888888wdddd",
"dddd0z8888888zeddddd",
"dddddO: s8s :$dddddd",
"dddddddd212ddddddddd",
"dddddddddddddddddddd"
};
