/* XPM */
static char *desktop[] = {
/* width height ncolors chars_per_pixel */
"20 20 6 1",
/* colors */
"  c #191919",
". c #F2F2F2",
"X c #535353",
"o c #545454",
"O c #555555",
"+ c #E5E5E5",
/* pixels */
"....................",
"....................",
"....................",
"....................",
"....................",
"....................",
"....................",
"....................",
"....................",
"....................",
"....................",
"....................",
"....................",
"....................",
"..+++++++++++++++...",
".o               O..",
".X               o..",
"..+++++++++++++++...",
"....................",
"...................."
};
