/* XPM */
static char *expand[] = {
/* width height ncolors chars_per_pixel */
"20 20 71 1",
/* colors */
"  c #363636",
". c #484848",
"X c #494949",
"o c #5B5B5B",
"O c #C6C6C6",
"+ c #D8D8D8",
"@ c #383838",
"# c #4A4A4A",
"$ c #5C5C5C",
"% c #D9D9D9",
"& c #939393",
"* c #3A3A3A",
"= c #A5A5A5",
"- c #C9C9C9",
"; c #828282",
": c #292929",
"> c #CACACA",
", c #717171",
"< c #DCDCDC",
"1 c #EEEEEE",
"2 c #2A2A2A",
"3 c #959595",
"4 c #3C3C3C",
"5 c #4E4E4E",
"6 c #CBCBCB",
"7 c #727272",
"8 c #191919",
"9 c #EFEFEF",
"0 c #2B2B2B",
"q c #969696",
"w c #A8A8A8",
"e c #CCCCCC",
"r c #737373",
"t c #858585",
"y c #F0F0F0",
"u c #979797",
"i c #505050",
"p c #3F3F3F",
"a c #515151",
"s c #BCBCBC",
"d c #E0E0E0",
"f c #1C1C1C",
"g c #F2F2F2",
"h c #999999",
"j c #404040",
"k c #ABABAB",
"l c #525252",
"z c #BDBDBD",
"x c #E1E1E1",
"c c #414141",
"v c #1E1E1E",
"b c #898989",
"n c #303030",
"m c #ADADAD",
"M c #666666",
"N c #313131",
"B c #9C9C9C",
"V c #676767",
"C c #E4E4E4",
"Z c #202020",
"A c #C1C1C1",
"S c #E5E5E5",
"D c #212121",
"F c #333333",
"G c #E6E6E6",
"H c #222222",
"J c #343434",
"K c #9F9F9F",
"L c #C3C3C3",
"P c #E7E7E7",
"I c #474747",
/* pixels */
"gggggggggggggggggggg",
"ggggggs,a4l7zggggggg",
"gggg-p8888888p>ggggg",
"ggg=Z888888888Dwgggg",
"ggLv88888888888vOggg",
"g9J8888880b:8888 9gg",
"gk8888882e9c88888mgg",
"go8888826yM888888$gg",
"g@8888:6yV8888888*gg",
"gZ8888hgt88888888Dgg",
"gN8888IPxj8888888Fgg",
"g588888#Gxp888888igg",
"g&888888XGdn888883gg",
"gCH888888.A*8888HSgg",
"ggB8888888888888Kggg",
"ggg,88888888888rgggg",
"ggggqv8888888vuggggg",
"ggggg+; f8f ;%gggggg",
"gggggggg1<1ggggggggg",
"gggggggggggggggggggg"
};
