/* XPM */
static char *start[] = {
/* width height ncolors chars_per_pixel */
"60 20 66 1",
/* colors */
"  c #E8E8E8",
". c #909090",
"X c #373737",
"o c #B4B4B4",
"O c #5B5B5B",
"+ c #7F7F7F",
"@ c #EAEAEA",
"# c #B5B5B5",
"$ c #C7C7C7",
"% c #EBEBEB",
"& c #272727",
"* c #929292",
"= c #393939",
"- c #5D5D5D",
"; c #818181",
": c #282828",
"> c #A5A5A5",
", c #4C4C4C",
"< c #B7B7B7",
"1 c #5E5E5E",
"2 c #C9C9C9",
"3 c #949494",
"4 c #A6A6A6",
"5 c #838383",
"6 c #B9B9B9",
"7 c #191919",
"8 c #EFEFEF",
"9 c #4F4F4F",
"0 c #CCCCCC",
"q c #737373",
"w c #F0F0F0",
"e c #CDCDCD",
"r c #DFDFDF",
"t c #1B1B1B",
"y c #F1F1F1",
"u c #989898",
"i c #1C1C1C",
"p c #F2F2F2",
"a c #E1E1E1",
"s c #1D1D1D",
"d c #888888",
"f c #414141",
"g c #303030",
"h c #424242",
"j c #666666",
"k c #787878",
"l c #E3E3E3",
"z c #1F1F1F",
"x c #8A8A8A",
"c c #434343",
"v c #676767",
"b c #8B8B8B",
"n c #323232",
"m c #444444",
"M c #AFAFAF",
"N c #D3D3D3",
"B c #212121",
"V c #8C8C8C",
"C c #B0B0B0",
"Z c #575757",
"A c #D4D4D4",
"S c #9F9F9F",
"D c #464646",
"F c #6A6A6A",
"G c #232323",
"H c #A0A0A0",
/* pixels */
"pppppppppppppppppppppppyNppppppppppppppppppppppppppppppppppp",
"ppppppppppppppppppppppp#iapppppppppppppppppppppppppppppppppp",
"pppppppppppppppppppppppV76pppppppppppppppppppppppppppppppppp",
"pppppppppppppppppppppppv7*pppppppppppppppppppppppppppppppppp",
"pppppppppppppppppppppppm7Fpppppppppppppppppppppppppppppppppp",
"ppppppppppppppppppppppwB7cppppp$kppppppppppppppppppppppppppp",
"ppppppppppppppppppppppA77z8pppp5t%pppppppppppppppppppppppppp",
"ppppppppppppppppppppppC777ep<0p172pSlppppppppppppppppppppppp",
"ppppppppppppppppppppppb7774pnOp=7>07Vppppppppppppppppppppppp",
"ppppppppppppppppppppppj777+r7&@i7;379ppppppppppppppppppppppp",
"pppppppppppppppppppppph777Zo77H77--7s pppppppppppppppppppppp",
"pppppppppppppppppppppwB777gd77D77X:77Cpppppppppppppppppppppp",
"pppppppppppppppppppppN77777,777777777qpppppppppppppppppppppp",
"pppppppppppppppppppppM777777777777777Xpppppppppppppppppppppp",
"pppppppppppppppppppppx7777777777777777Appppppppppppppppppppp",
"pppppppppppppppppppppj7777777777777777uppppppppppppppppppppp",
"pppppppppppppppppppppf7777777777777777Oppppppppppppppppppppp",
"pppppppppppppppppppppG7777777777777777&ppppppppppppppppppppp",
"ppppppppppppppppppppp.9999999999999999bppppppppppppppppppppp",
"pppppppppppppppppppppppppppppppppppppppppppppppppppppppppppp"
};
