/* XPM */
static char *windows[] = {
/* width height ncolors chars_per_pixel */
"20 20 36 1",
/* colors */
"  c #D6D6D6",
". c #484848",
"X c #6C6C6C",
"o c #D7D7D7",
"O c #B4B4B4",
"+ c #4A4A4A",
"@ c #B5B5B5",
"# c #4B4B4B",
"$ c #3C3C3C",
"% c #CBCBCB",
"& c #191919",
"* c #2B2B2B",
"= c #4F4F4F",
"- c #616161",
"; c #2C2C2C",
": c #3E3E3E",
"> c #626262",
", c #1B1B1B",
"< c #989898",
"1 c #F2F2F2",
"2 c #767676",
"3 c #414141",
"4 c #777777",
"5 c #303030",
"6 c #9B9B9B",
"7 c #424242",
"8 c #545454",
"9 c #AEAEAE",
"0 c #E4E4E4",
"q c #323232",
"w c #E5E5E5",
"e c #333333",
"r c #222222",
"t c #343434",
"y c #D5D5D5",
"u c #A0A0A0",
/* pixels */
"11111111111111111111",
"11111111111111111111",
"1y-7333333333337> 11",
"1.&&&&&&&&&&&&&&&+11",
"1,&69:&299999996&,11",
"1&&o1=&u1111111o&&11",
"1&&X45&84444444X&&11",
"1&&&&&&&&&&&&&&&&&11",
"1&&X45&84444444X&&11",
"1&&o1=&u1111111o&&11",
"1&&69:&299999996&&11",
"1&&&&&&&&&&&&&&&&&11",
"1&&$3r&q3333333$&&11",
"1&&o1=&u1111111o&&11",
"1&&%0#&<0000000%&&11",
"1e&&&&&&&&&&&&&&&t11",
"1O*&&&&&&&&&&&&&;@11",
"111w00000000000w1111",
"11111111111111111111",
"11111111111111111111"
};
