/* XPM */
static char *closeA[] = {
/* columns rows colors chars-per-pixel */
"20 41 59 1 ",
"  c #010101",
". c #0D0C0D",
"X c #0F100F",
"o c #141414",
"O c #1C1C1C",
"+ c #232323",
"@ c #2B2B2B",
"# c #343434",
"$ c #3A3A3A",
"% c #424342",
"& c #4A4A4A",
"* c #504F50",
"= c #535253",
"- c #5D5D5D",
"; c #646364",
": c #6B6C6B",
"> c #6D706D",
", c #706E70",
"< c #727372",
"1 c #767976",
"2 c #7A7C7A",
"3 c #7F817F",
"4 c #827F82",
"5 c #818481",
"6 c #868986",
"7 c #8A8D8A",
"8 c #8E918E",
"9 c #949694",
"0 c #969896",
"q c #999799",
"w c #9C9D9C",
"e c #9EA09E",
"r c #A3A4A3",
"t c #A7A9A7",
"y c #A9A7A9",
"u c #AAABAA",
"i c #AFB0AF",
"p c #B1AFB1",
"a c #B2B3B2",
"s c #BCBBBC",
"d c #BFC0BF",
"f c #C0BEC0",
"g c #C3C4C3",
"h c #C7C8C7",
"j c #CCCBCC",
"k c #CFD0CF",
"l c #D3D4D3",
"z c #D7D8D7",
"x c #D8D6D8",
"c c #DDDDDD",
"v c #E0DCE0",
"b c #E5E4E5",
"n c #E7E8E7",
"m c #E9E6E9",
"M c #EDEBED",
"N c #F0EDF0",
"B c #F3F3F3",
"V c #F8F7F8",
"C c #FDFCFD",
/* pixels */
"csaaaaaaaaaaaaaaaigC",
"cd8232232222232232eC",
"cd38ddddgdsfdddgt36C",
"cg3iCCCCCCCCCCCCc97C",
"cd3aCMMfcNMMmfvNk96C",
"cd3uCbg+qbnbaOpbk98V",
"cg5aCs+ .7myO oyk97C",
"cs2aClqo +%@ .4kk97C",
"cd3iVcx5O   X,kch98C",
"cg3iBllc$   +kxlh96V",
"cd3iBkjy@   owjkd07C",
"cd3iBhp+ ... Xqjg07C",
"cg3iBy+  ;a2  o8h97C",
"cd3aBa2o-yja<X:pd98V",
"cd3iBss,ygsfs:pfs96C",
"cd3tcssgsssssffsd07C",
"cd33rrrrtrttrtttr87V",
"cd8<3131111111112>9C",
"cBMnnnbnnnbnnnmnnnMC",
"7e0e0e0ewwwwwwwwe0e9",
"e888878788787877860i",
"cdteeeeeewwewweeeeaC",
"cd3>21<211<2111<<>8C",
"cd37aiiiiiiipappa07V",
"cd67dadsfsssssfscd7V",
"cd37dds*egsfp*ufbh7C",
"cd67di-.%rku=.&rnh7C",
"cd37di$  *9;  @qNh6C",
"cd37sjd#     +ukMh7C",
"cd57dkjd#   OakkMh6C",
"cd57gllz$   OjzkMh7C",
"cd56gcz;o   .*jcBh7V",
"cd57gj<. $:&  -sBh6C",
"cg56jg$.+rNs#.@uCh7C",
"cd57gml$uMnnh#fMVh6V",
"cd56jNMcnNMNmcnNCh7C",
"cd57kCCCCCCCCCCCCh7C",
"cd3>8rrererrerrrr66C",
"bcdtttttyuttytytttdC",
"dlcccccccccccccccccz",
">>>>>>>>>>>>>>>>>>>>"
};
