/* XPM */
static char *closeI[] = {
/* columns rows colors chars-per-pixel */
"20 41 59 1 ",
"  c #020202",
". c #0C0C0C",
"X c #121312",
"o c #1B1C1B",
"O c #232323",
"+ c #2B2B2B",
"@ c #343434",
"# c #3A3A3A",
"$ c #454545",
"% c #4A4A4A",
"& c #504F50",
"* c #535253",
"= c #5D5D5D",
"- c #636263",
"; c #6B6B6B",
": c #6D706D",
"> c #706E70",
", c #737473",
"< c #767876",
"1 c #7A7C7A",
"2 c #7F817F",
"3 c #838583",
"4 c #868986",
"5 c #8A8C8A",
"6 c #8E918E",
"7 c #949594",
"8 c #969896",
"9 c #999699",
"0 c #9D9F9D",
"q c #9EA09E",
"w c #A09EA0",
"e c #A1A2A1",
"r c #A6A8A6",
"t c #A9A7A9",
"y c #AAAAAA",
"u c #AFB0AF",
"i c #B0AFB0",
"p c #B2B3B2",
"a c #B8B7B8",
"s c #BCBCBC",
"d c #BFC0BF",
"f c #C0BEC0",
"g c #C3C3C3",
"h c #C7C8C7",
"j c #CAC6CA",
"k c #CCCBCC",
"l c #CFD0CF",
"z c #D1CED1",
"x c #D4D3D4",
"c c #D7D8D7",
"v c #D9D5D9",
"b c #DCDCDC",
"n c #E1DDE1",
"m c #E5E3E5",
"M c #E9E5E9",
"N c #EDEAED",
"B c #F3F2F3",
"V c #F8F7F8",
"C c #FDFCFD",
/* pixels */
"mfppppppppppppppppdm",
"ng7111<21111<2112<8b",
"bf36gdddgdsfdddgy13b",
"bf2yCCCCCCCCCCCCb93b",
"bd2uCNNxmNNNMzMNx73v",
"vs2pCmx,ammmj,hMl73v",
"vs2yCk,-;img;-;fl83x",
"vs3uVvi;=,3<=-txk72x",
"xs3uVvvy,===;0xbh92z",
"zs2uVxxc2===,kxxh93z",
"ks2pBkka,===;pkzg72k",
"ks2uBks,=-;;-;pkd92k",
"ks2uBa,==7sw--;yg82j",
"js2pBa0;5aga9-7as81h",
"hs3pNss9pfsfa9afa93g",
"ga2ebssfsssssfass92f",
"gs33yrrrrrttrrrry62g",
"fa4,,,,,,,,<,,,,,:3s",
"ffappappppiippppppas",
"33343343444444434333",
"q756666666666666668u",
"mdrqqqqq000w00qq00aC",
"bd3:<<<<<,<<<<<,,;5C",
"bd34pupupuppupppa95C",
"bd36adssssssssssbd4C",
"bd24ada*0gsfi&yfmh4C",
"bd36du=.$wzy=.%wNh5C",
"bg35du#  &9-  +9Nh5C",
"bd34dkg@     OykNh6C",
"bd26dkks@   opllNh5V",
"bd34gxcc#   okcxBh5C",
"bd34gbv-X   .&hbBh5V",
"bd35hh>. #;%  =sVh4V",
"bg25hg#.+eBa@.+yCg6C",
"bd35hNc#yNMNh@gNVh4C",
"bd25hNNbMNNNNvMNCh4C",
"bd25lCCCCCCCCCCCCh5C",
"bd2:6qqqeqeqeeeeq34C",
"mbdruyryyyyyyryyyydC",
"dcbbbbbbbbbbbbbbbbbc",
"::::::::::::::::::::"
};
