/* XPM */
static char *maximizeI[] = {
/* columns rows colors chars-per-pixel */
"20 41 56 1 ",
"  c #000000",
". c #0A0A0A",
"X c #100F10",
"o c #1D1C1D",
"O c #262626",
"+ c #2C2C2C",
"@ c #343334",
"# c #3D3C3D",
"$ c #403F40",
"% c #424142",
"& c #5D5D5D",
"* c #636363",
"= c #6B6B6B",
"- c #6D706D",
"; c #706F70",
": c #737573",
"> c #767876",
", c #7B7D7B",
"< c #7F827F",
"1 c #838583",
"2 c #868986",
"3 c #898C89",
"4 c #8E918E",
"5 c #918F91",
"6 c #939493",
"7 c #969996",
"8 c #9D9F9D",
"9 c #9DA09D",
"0 c #A2A3A2",
"q c #A6A8A6",
"w c #A9A7A9",
"e c #A9AAA9",
"r c #AFB0AF",
"t c #B0AEB0",
"y c #B2B3B2",
"u c #B7B8B7",
"i c #B8B6B8",
"p c #BDBCBD",
"a c #BFC0BF",
"s c #C1BEC1",
"d c #C4C4C4",
"f c #C7C8C7",
"g c #C9C6C9",
"h c #CCCBCC",
"j c #CFD0CF",
"k c #D1CDD1",
"l c #D3D3D3",
"z c #D7D8D7",
"x c #D9D5D9",
"c c #DCDCDC",
"v c #E1DEE1",
"b c #E4E2E4",
"n c #EAE7EA",
"m c #EBEBEB",
"M c #F4F4F4",
"N c #FDFDFD",
/* pixels */
"bsyyyyyyyyyyyyyyyrab",
"vd4,,,><,,<>><,,<>6c",
"cs<4daaadppsaaade<1c",
"cs<rNNNNNNNNNNNNc61x",
"ca<rNbkhhhhkhkhbl61x",
"xp<rNj=********pl6<x",
"xp<rNf*********ij7<l",
"xp<rNg**0sipt*&ij61j",
"kp1rNd**ibcch=&ih71k",
"kp<yNp*&uzlld=&ef7,h",
"hp<rNi**ykhld**ef71g",
"hp<rMi*&wfdfi*&wf7,f",
"hp<rMy**===;=*&wd71g",
"fp<yMe*&&&&&&&&0p7,s",
"gi<rMy656555555tp7<s",
"gu10cppsppsspsppp7<s",
"gi11qqqqqqqwqqqww3,s",
"sp2;::::::::::::::1p",
"ssiyyyyytytiyyyyyyis",
"11122122222212212111",
"8444444455366444537y",
"vdq999998898998898uN",
"ca1->>>>>>>>::>>>=3N",
"ca13yyrryrryyyytu73N",
"ca<4uipppppspssica2N",
"ca<3aq%%%%$$$$$6nf2N",
"ca14s8.        1mf3N",
"ca13dq. +###@  2Mf2N",
"ca13dw. 6khktX 3Mf2N",
"ca13dq. 7zhlyX 2Mf2N",
"ca13fe. 8xlzi. 4Mf3N",
"ca13fy. qnvnfX 6Nf2N",
"ca13fi. &,,,=. 7Nf3M",
"cd<3fi.        7Nd3N",
"ca13hfOoooooooowNf3N",
"ca<3fnxcxxxxxxxnNf3M",
"ca<3jNNNNNNNNNNNNf3N",
"ca<-499900099000913N",
"bcareeeeweeeeqqweeaN",
"azzccccccccccccccccz",
"--------------------"
};
