/* XPM */
static char *maximizeA[] = {
/* columns rows colors chars-per-pixel */
"20 41 61 1 ",
"  c #010101",
". c #0B0B0B",
"X c #100F10",
"o c #131313",
"O c #1D1C1D",
"+ c #262626",
"@ c #2C2C2C",
"# c #343334",
"$ c #3D3C3D",
"% c #403F40",
"& c #424142",
"* c #5A595A",
"= c #646264",
"- c #686668",
"; c #6B6C6B",
": c #6D706D",
"> c #747574",
", c #767976",
"< c #7A7C7A",
"1 c #7F817F",
"2 c #828482",
"3 c #868986",
"4 c #888688",
"5 c #8B8D8B",
"6 c #8F908F",
"7 c #949694",
"8 c #969896",
"9 c #9A979A",
"0 c #9B9D9B",
"q c #9EA09E",
"w c #A29FA2",
"e c #A3A4A3",
"r c #A7A9A7",
"t c #A9A7A9",
"y c #A9AAA9",
"u c #AFB0AF",
"i c #B1AFB1",
"p c #B2B3B2",
"a c #B7B8B7",
"s c #B8B5B8",
"d c #BDBCBD",
"f c #BFC0BF",
"g c #C1BEC1",
"h c #C3C3C3",
"j c #C7C8C7",
"k c #CBCBCB",
"l c #CFD0CF",
"z c #D0CDD0",
"x c #D3D3D3",
"c c #D7D8D7",
"v c #D9D6D9",
"b c #DCDDDC",
"n c #E0DFE0",
"m c #E5E3E5",
"M c #E7E8E7",
"N c #EAE7EA",
"B c #EDEDED",
"V c #F1EFF1",
"C c #F4F4F4",
"Z c #F8F7F8",
"A c #FDFDFD",
/* pixels */
"bdpppppppppppppppuhA",
"bf6<1<<1<<<<<1<<1<0A",
"bf16ffffhfhgfffhr15A",
"bh1uAAAAAAAAAAAAc75A",
"bf1uAnssissssssbx75A",
"bf1uAh.....  . ex75A",
"bf1uAs.        9x75Z",
"bf1pAs. ,twe5. 9x75A",
"bf1uAp. emnmh. 7l76Z",
"bh1uAy. 9bxcsX 7k75A",
"bf1uZt. 9ckxs. 5k75Z",
"bf1pZe. 4hdge. 5j76Z",
"bf1uZe. oOOOO  4j85Z",
"bf1uC0.        2f85A",
"bf1pCy-========wf75A",
"bh1ebdghhhghhghda86Z",
"bf11qqeqreeereerr55Z",
"bf311111,,<<<,<,1:7A",
"bCMMnMnMMMMMMMmMMMBA",
"577qqqqq8qq8q800qq87",
"q666555565656566558u",
"nfrqqqqqqqqq00q0qqpA",
"bf1:1>,,:1>,,,,,>:5A",
"bf15puuupuuuupiip85Z",
"bf16ffffdddgddgsbf5Z",
"bf15fe&$&%%&%%%7Mj5A",
"bf15fq.        2Bj5Z",
"bf36fe. @$$$#  4Vj5A",
"bf24hy. 7zzzuX 4Cj5A",
"bf25hy. 8xkxpX 6Ch5A",
"bh25jy. 0bcca. 6Cj5Z",
"bf25jp. eNnmho 7Zj5Z",
"bf25js. *<<<;. 7Aj5A",
"bf15jd.        9Aj5Z",
"bf25kh+OOOOOOOOeAh5Z",
"bf15jNvbvvvvvvvmAh5A",
"bf25lAAAAAAAAAAAAh5A",
"bf1:6qqeeeeqeeeee33A",
"mbfryrrrrrryrrrrrrhA",
"fxbbbbbbbbbbbbbbbbbc",
"::::::::::::::::::::"
};
