/* XPM */
static char *minimizeA[] = {
/* columns rows colors chars-per-pixel */
"20 41 110 2 ",
"   c black",
".  c #090909",
"X  c #0C0B0C",
"o  c #0F0F0F",
"O  c #1C1C1C",
"+  c #1D1D1D",
"@  c #282828",
"#  c #363636",
"$  c #383838",
"%  c #393939",
"&  c #3C3C3C",
"*  c #414041",
"=  c #525152",
"-  c #5F5F5F",
";  c #616161",
":  c #636363",
">  c #676667",
",  c #6C6F6C",
"<  c #6D706D",
"1  c #727572",
"2  c #747374",
"3  c #767876",
"4  c #767976",
"5  c #777A77",
"6  c #797C79",
"7  c #7A7C7A",
"8  c #7F827F",
"9  c #808280",
"0  c #818481",
"q  c #828582",
"w  c #848384",
"e  c #868886",
"r  c #898789",
"t  c #888B88",
"y  c #8A888A",
"u  c #8B898B",
"i  c #898C89",
"p  c #8C8E8C",
"a  c #8E908E",
"s  c #909390",
"d  c #939193",
"f  c #939593",
"g  c #939693",
"h  c #969896",
"j  c #999B99",
"k  c #9B999B",
"l  c #9A9C9A",
"z  c #9D9F9D",
"x  c #9DA09D",
"c  c #A0A2A0",
"v  c #A4A6A4",
"b  c #A7AAA7",
"n  c #A8A6A8",
"m  c #A8AAA8",
"M  c #ABACAB",
"N  c #ADAAAD",
"B  c #AFB0AF",
"V  c #B1AEB1",
"C  c #B0B2B0",
"Z  c #B2B4B2",
"A  c #B4B6B4",
"S  c #B9BAB9",
"D  c #BAB8BA",
"F  c #BBBCBB",
"G  c #BCBABC",
"H  c #BEBFBE",
"J  c #BEC0BE",
"K  c #C0BFC0",
"L  c #C1C2C1",
"P  c #C2C4C2",
"I  c #C6C3C6",
"U  c #C6C5C6",
"Y  c #C7C4C7",
"T  c #C7C8C7",
"R  c #C8C7C8",
"E  c #CBC9CB",
"W  c #CBCCCB",
"Q  c #CCC9CC",
"!  c #CECBCE",
"~  c #CDCECD",
"^  c #CFCFCF",
"/  c #CFD0CF",
"(  c #D1D3D1",
")  c #D3D0D3",
"_  c #D4D5D4",
"`  c #D5D6D5",
"'  c #D8D7D8",
"]  c #DBD9DB",
"[  c #DEDBDE",
"{  c #DCDDDC",
"}  c #DDDDDD",
"|  c #DFDCDF",
" . c #DFDFDF",
".. c #E0E0E0",
"X. c #E5E5E5",
"o. c #E7E7E7",
"O. c #E7E8E7",
"+. c #EAE8EA",
"@. c #ECE9EC",
"#. c #EDEBED",
"$. c #EEEBEE",
"%. c #EFEFEF",
"&. c #F0F0F0",
"*. c #F2F1F2",
"=. c #F4F3F4",
"-. c #F4F4F4",
";. c #FBFBFB",
":. c #FBFCFB",
">. c #FEFCFE",
",. c #FEFDFE",
/* pixels */
"} H Z Z Z Z Z Z Z Z Z Z Z Z Z Z Z C U ,.",
"} J s 7 7 7 7 7 7 7 7 7 7 7 7 7 7 7 l >.",
"} J 9 a L H J J H H L J J H J L b 8 t ;.",
"} J 8 B ,.,.,.,.>.,.,.,.,.,.,.,.] h i ;.",
"} J 8 B ,.+.@.@.@.@.@.@.@.@.@.@.( f i :.",
"} H 8 B ,.X.X.X.X.X.X.X.X.X.X.+./ f i :.",
"} L 8 C ;.} } ..} } [ [ } ..[ ..W f i :.",
"} J 8 N ;.[ [ [ > % % % = _ | | E f i ,.",
"} J 8 C ;.' ' ' %       + R ] ] T f i :.",
"} J 8 C =.( ( ( %       + I _ ( T h i :.",
"} J 8 B =.~ ~ Q #       + K ~ ~ P f i :.",
"} J 8 C =.Q Q Q * . o X @ L Q Q P g a :.",
"} L 8 C *.U I I V n n n N I U Y J h i ,.",
"} J 8 C *.H L J I L I L L H K K J f t ;.",
"} J 0 C %.G H G H H G H H G G H F h i ,.",
"} J 8 v } D G G D D G G G G G G F h i :.",
"} J 8 0 b v b v v m v m v v v v b i i ,.",
"} P a 1 5 5 5 5 5 5 5 5 7 5 7 7 5 1 f :.",
" .%.@.O.O.O.X.+.O.O.O.X.X.O.X.O.O.O.%.,.",
"a h l l l l l l l l l l l z l z l l l f ",
"x a a a t a a a t p s p p p p p a i f B ",
" .P b x z z z z z z z c z z z z x l A :.",
" .J 0 < 5 5 5 5 5 5 5 4 4 4 4 5 5 < a :.",
"} J 0 e Z B B B B C C N C C C C A f i :.",
"{ J 0 i F F F D G G G G G G G D } J i :.",
" .J 0 i F F J J G H H G G H G G X.T i :.",
"{ J 0 a G K J J U R R R U K K K O.T i :.",
"} J 0 i H R U U k r u t d I R I +.T i :.",
"} L 0 i H Q Q Q #       O J ~ E %.T i :.",
"} L 0 i H ~ ~ ~ #       O L / W +.T i :.",
"} H 0 t L ( _ ( %       O U _ ( %.T i :.",
"} H 0 r L [ [ ' %       + E ] ] *.T i :.",
"} J 0 t U } } } w - : - 2 ) | | -.T i :.",
"} L 0 i U ......X.X.O.O.X.......-.U i :.",
"} J 0 i T X.X.+.O.+.X.O.O.O.O.X.;.P i :.",
"} J 0 i E +.%.@.@.@.@.%.@.@.$.@.;.T i :.",
"} J 0 t / ,.,.,.,.,.,.,.,.,.,.,.,.U i :.",
"} J 8 < a c c x c c c c c c c c x e e ,.",
"..} H M M b b b m m b b m m m m b b J ,.",
"L _ } } } } { { [ } } } } } } } { { { ] ",
", < < < < < < < , < < < < < < < < < < < "
};
