/* XPM */
static char *minimizeI[] = {
/* columns rows colors chars-per-pixel */
"20 41 46 1 ",
"  c #000000",
". c #1C1C1C",
"X c #373637",
"o c #393939",
"O c #5C5C5C",
"+ c #636363",
"@ c #686768",
"# c #6E6E6E",
"$ c #6D706D",
"% c #737573",
"& c #767876",
"* c #7B7D7B",
"= c #7F817F",
"- c #838583",
"; c #868986",
": c #898789",
"> c #8A8C8A",
", c #8E918E",
"< c #949594",
"1 c #969896",
"2 c #9D9F9D",
"3 c #9DA09D",
"4 c #A0A2A0",
"5 c #A6A8A6",
"6 c #A8AAA8",
"7 c #AFB0AF",
"8 c #B2B3B2",
"9 c #B9B6B9",
"0 c #BCBCBC",
"q c #BFC0BF",
"w c #C0BEC0",
"e c #C4C3C4",
"r c #C7C8C7",
"t c #C8C6C8",
"y c #CCCBCC",
"u c #CFD0CF",
"i c #D1CED1",
"p c #D3D3D3",
"a c #D9D6D9",
"s c #DDDCDD",
"d c #E1DDE1",
"f c #E5E4E5",
"g c #EDEAED",
"h c #F3F3F3",
"j c #F8F7F8",
"k c #FDFCFD",
/* pixels */
"f08888888888888887qf",
"de,***&=&*=&&=**=&<d",
"de=<eqqqweqwqqqe6=-s",
"s0=6kkkkkkkkkkkks<-s",
"sq=7kgggggggggggp<-a",
"aq=7kfffffffffffy<-a",
"a0=7kssssssssfddy<-p",
"a0=7jdss2*-->asdy<-p",
"p0=8jaaa*OOO#isay<-i",
"i0=7jppp=OOO#tppe<=i",
"y0=7hyyy*OOO#tyie1-y",
"y0=7hyyy=@@@&eyye1*y",
"y0=7heee99999wte01=t",
"t0=8h0e0wwewe00w01=t",
"t0*8g0000000000001*t",
"e0-4s0000000000001=w",
"e9--5554555555546>*e",
"e9;#&%%%%%%%%%%%%%-w",
"0q98898988889889889w",
"--:-:-;;-::--:-:-:-=",
"4,><,,,,><,,<><,,,17",
"fq52333333223222229k",
"sq-$&&&&&&&&*%%%%#>k",
"sq-;8778778768889<>k",
"sq=,900000000000sq;k",
"sq=,9q00000000w0fr;k",
"sq-;0eqqeteytwwwfr>k",
"sq-,0yee2:::<wtwgr>k",
"sq=>0yyyX   .0urgr>k",
"sq->qyyyX   .quugr;k",
"sq->qpppo   .rpuhr>k",
"sq-;rasao   .ysahr;k",
"sq->qsss-O@+%asshr,k",
"sq=>rffsfffffsfshr;k",
"sq->rffggfffgfffjr;k",
"sq=>ygggggghggggkr;k",
"sq=,ukkkkkkkkkkkkr>k",
"sq=$,333444344444-;k",
"fsq666656666666666qk",
"qpsssssssssssssssssa",
"$$$$$$$$$$$$$$$$$$$$"
};
