/* XPM */
static char *restoreA[] = {
/* columns rows colors chars-per-pixel */
"20 41 107 2 ",
"   c #010101",
".  c #050505",
"X  c #090909",
"o  c #0A090A",
"O  c #121212",
"+  c #1A191A",
"@  c #1C1C1C",
"#  c #1D1D1D",
"$  c #262626",
"%  c #343334",
"&  c #383738",
"*  c #383838",
"=  c #3C3C3C",
"-  c #434343",
";  c #464446",
":  c #4B4B4B",
">  c #636263",
",  c #646264",
"<  c #686668",
"1  c #6D706D",
"2  c #706E70",
"3  c #727572",
"4  c #747474",
"5  c #767976",
"6  c #787878",
"7  c #797C79",
"8  c #7F827F",
"9  c #808280",
"0  c #828582",
"q  c #868886",
"w  c #888588",
"e  c #888B88",
"r  c #8B898B",
"t  c #898C89",
"y  c #8C8F8C",
"u  c #8E908E",
"i  c #909390",
"p  c #939593",
"a  c #939693",
"s  c #969896",
"d  c #999B99",
"f  c #9B9E9B",
"g  c #9D9D9D",
"h  c #9DA09D",
"j  c #9FA19F",
"k  c #A0A2A0",
"l  c #A3A1A3",
"z  c #A2A4A2",
"x  c #A4A6A4",
"c  c #A7AAA7",
"v  c #A8A6A8",
"b  c #A9A9A9",
"n  c #ABACAB",
"m  c #ADACAD",
"M  c #AEB0AE",
"N  c #B0B3B0",
"B  c #B2B4B2",
"V  c #B5B3B5",
"C  c #B4B6B4",
"Z  c #B5B7B5",
"A  c #B8B6B8",
"S  c #B9BAB9",
"D  c #BBB8BB",
"F  c #BCBBBC",
"G  c #BCBDBC",
"H  c #BEBFBE",
"J  c #BFC0BF",
"K  c #C0BFC0",
"L  c #C0C1C0",
"P  c #C2C1C2",
"I  c #C3C4C3",
"U  c #C4C5C4",
"Y  c #C5C6C5",
"T  c #C6C8C6",
"R  c #C8C4C8",
"E  c #CBC8CB",
"W  c #CBCCCB",
"Q  c #CDCACD",
"!  c #CFCCCF",
"~  c #CFD0CF",
"^  c #D2D3D2",
"/  c #D3D4D3",
"(  c #D4D5D4",
")  c #D7D5D7",
"_  c #DAD7DA",
"`  c #D8D9D8",
"'  c #D9D8D9",
"]  c #DADCDA",
"[  c #DEDBDE",
"{  c #DDDDDD",
"}  c #DFDFDF",
"|  c #E1DFE1",
" . c #E2E1E2",
".. c #E6E3E6",
"X. c #E6E5E6",
"o. c #E7E8E7",
"O. c #EBE7EB",
"+. c #ECE9EC",
"@. c #EEEAEE",
"#. c #EDEDED",
"$. c #F0F0F0",
"%. c #F6F5F6",
"&. c #F8F7F8",
"*. c #FAFAFA",
"=. c #FBFCFB",
"-. c #FCFAFC",
";. c #FEFCFE",
/* pixels */
"{ H B B B B B B B B B B B B C B B N Y ;.",
"{ J i 7 7 7 7 7 7 7 7 7 7 7 7 7 7 7 f ;.",
"{ J 9 u L J J J J J J H J J J L c 8 t =.",
"{ J 8 M ;.;.;.;.;.;.;.;.;.;.-.;.] s t =.",
"{ J 9 M ;.+.+.+.+.@.+.+.+.+.+.+.^ p t =.",
"{ L 8 M ;.X.X.X.X.X.X.X.X.X.X.X.! p t =.",
"{ J 8 M *.{ { { | {  .{ {  .|  .W p t =.",
"{ J 8 M ;.L - = C ..[ [ [ { [ { E p u =.",
"{ J 8 M ;.N o   ; m  .' _ ' ' _ E p t =.",
"{ J 8 N *.m o     : m ' ^ ^ ^ ( Y p t =.",
"{ J 8 N &.b o       - C ! ! ! ! I p u =.",
"{ J 8 M &.v o         * H E Q Q I p t =.",
"{ L 8 M %.l o         . % A R R J s t =.",
"{ J 8 N %.g o           + V K K H p t =.",
"{ J 8 N $.m < , > , , , 2 A K F G p u =.",
"{ J 9 x { F L L L L L L L F F F G s t =.",
"{ J 0 8 c c x c c c x c c c x c c t t ;.",
"{ I t 5 5 5 5 5 5 5 5 5 5 5 5 5 5 3 p =.",
"{ $.@.o.o.o.o.o.X.+.X.o.X.o.X.o.o.X.@.;.",
"t s a f f f f f f f d f f f f j f h h s ",
"j u e u u u u e e u t u u y y t e u s M ",
"X.I c j h h h h j f h j j g g j h f Z =.",
"] J 0 1 5 5 5 5 5 5 5 5 4 5 6 4 5 1 u =.",
"] J 0 e B M M B M M B M N N N N M a t =.",
"] J 0 t J Z H F F F D F F D F D { J t =.",
"{ J 0 t S J H F F K F H F K F D o.T t =.",
"{ J 0 t F L Y Y L K K K K K K K X.T t =.",
"{ J 0 t H F r r A Q R Y R R R R +.T t =.",
"{ J 0 t P b o   9 R ! Q ! W E E #.T e =.",
"{ J 0 t Y b o   . 6 ^ ! W ! ~ ! #.T e =.",
"{ J 0 t R m o     O 3 ] / / / / $.U t =.",
"{ J 0 t E V o       # 5  .' { ' $.T e =.",
"{ J 0 t Y C o         # w _ | [ %.I t =.",
"{ J 0 t E S o           # ^ | [ %.T t =.",
"] J 8 t W I $ # # # # + * ' +.X.*.U e =.",
"{ J 0 t E O.' ' ' ' _ ( ' +.+.+.*.T t =.",
"{ J 0 t ~ ;.*.;.;.*.;.;.;.;.;.;.;.T e =.",
"{ J 8 1 u x x j x j x x x j l x x q q =.",
" .] J n n c c n c c c c b c c c n c J ;.",
"J / ] { ' ] ] { { ' { { ] { ] ] ] { ] ' ",
"1 1 1 1 1 1 1 1 1 1 1 1 1 1 1 1 1 1 1 1 "
};
