/* XPM */
static char *restoreI[] = {
/* columns rows colors chars-per-pixel */
"20 41 49 1 ",
"  c #000000",
". c #090909",
"X c #121212",
"o c #1D1D1D",
"O c #262626",
"+ c #383838",
"@ c #5D5D5D",
"# c #616161",
"$ c #6A6C6A",
"% c #6D706D",
"& c #737573",
"* c #767976",
"= c #7A7C7A",
"- c #7F817F",
"; c #828482",
": c #878887",
"> c #888588",
", c #8B8D8B",
"< c #8E918E",
"1 c #918F91",
"2 c #949594",
"3 c #969896",
"4 c #9C9E9C",
"5 c #9EA09E",
"6 c #A3A5A3",
"7 c #A7A9A7",
"8 c #A9A7A9",
"9 c #A9AAA9",
"0 c #AFB0AF",
"q c #B2B3B2",
"w c #B8B6B8",
"e c #BCBCBC",
"r c #BFC0BF",
"t c #C0BEC0",
"y c #C3C3C3",
"u c #C7C8C7",
"i c #C8C5C8",
"p c #CCCBCC",
"a c #CFD0CF",
"s c #D3D4D3",
"d c #D9D6D9",
"f c #DDDCDD",
"g c #E2DFE2",
"h c #E5E5E5",
"j c #E7E8E7",
"k c #EBE7EB",
"l c #ECEAEC",
"z c #F4F3F4",
"x c #FCFCFC",
/* pixels */
"feqqqqqqqqqqqqqqq0yx",
"fr<=-==-=====-==-=5x",
"fr-<rrrrtyetrrry7-:x",
"fy-0xxxxxxxxxxxxf2,x",
"fr-0xllllllllllla2,x",
"fr-0xjhhhhhhhhhha2:x",
"fr-0xgfffgfgggfgp2,x",
"fr;9xp>;iggfgdggp2,x",
"fr-0xt#@>yfdddddu2:x",
"fy-0xt##@>rsssssu2,x",
"fr-0ze##@@;esappr2,x",
"fr-0ze#####=tappy2,x",
"fr-0zq######=ttir2<x",
"fr-0z0#@@@@@$wttr2,x",
"fr-qzq2112112weer2,x",
"fy-6feeteeteteeer2:x",
"fr--7676776767766,,x",
"fr<*=*=*****=****&<x",
"gzljjjjjjjhhjjkkhhlx",
"<2535353444444445552",
"5<,<,<,,,<,<,,1,,,20",
"gr6555555445444455qx",
"fr:%=***********&%<x",
"fr-:q00q0000q0qqq2,x",
"fr-<rqrweeeeweewfr:x",
"fr-,rrerteeeettehu,x",
"fr:,eyyutttttttthu:x",
"fr-,ee,,epiitiiiju,x",
"fr-,y9. =ipppppulu,x",
"fr;,y9. .=aaapaalu:x",
"fr;,yq.  X&fssaslu,x",
"fr;,uq.   o*ffffzu:x",
"fr;,uw.    o>dffzu<x",
"fr;,ue.     oshfzy:x",
"fr-,pyOooooo+dkhxy:x",
"fr;:ukdfddddflllxu:x",
"fr;:axxxxxxxxxxxxu:x",
"fr-%<665666666566::x",
"hfr797779777778977rx",
"rsfffffffffffffffffd",
"%%%%%%%%%%%%%%%%%%%%"
};
