/* XPM */
static char *titleIB[] = {
/* columns rows colors chars-per-pixel */
"106 20 19 1 ",
"  c #8B8B8B",
". c #B8B8BB",
"X c #BEBEC1",
"o c #C0C0C3",
"O c #C3C3C7",
"+ c #C4C4C7",
"@ c #C3C3C8",
"# c #C6C6CA",
"$ c #C7C7CC",
"% c #C8C8CA",
"& c #C9C9CC",
"* c #CCCCCF",
"= c #CCCCD0",
"- c #CFCFD3",
"; c #D0D0D3",
": c #D2D2D6",
"> c #D3D3D7",
", c #D4D4D7",
"< c #D7D7DA",
/* pixels */
"##########################################################################################################",
"###O##OOO#@##OO##@@@@##@@#@@O##OO###O@O###O@O#O##OO#+##OO#@##OO##@O##O#OO#@O#OO#OO##OO@#+##OO#O##OO##OO##O",
"OOOOOOOOOOOOOO@@@#O#O@@O#@O@OOOOOOOOOO@@O++OOO#O#OO@OOOOOOOOOO@@O#O#OOOO#OO@##OOOOOO@@@@OOO#OO#OOOOOO#OOOO",
"OXO##Oo+##OX##OOX+#+OX##OXO##OoO##OX+#OOo+##OX#OOXO##OoO##OXO#@OXO#@OX##OXO##OoO##OXO#@OoO#+OXO#OOo##+XO#@",
"Oo&=#O#%&#OO&*#O+=&#O#=#OX&=#@O&*#Oo*&#OO=&#O#=&Oo#=&OO#=#OO&&#OO&&#O+=&@O#=&OX#=#OX&=#OO&&#O+=&#oO=&#O+=&",
"##:,%##::#O$<=##&<=##=<&##=<&##::###<;##&<=#+=<&##=<&##:,%O#<:##&<;##=<=#O=<&##:<&##,:###<:#+=<=##=<&##;<&",
"O######&%###&#O+#&##+#&#@@$&###$&###&##O#&####&#@##&##O&&##@&&#+#%##O#&#@O#&##O&&#O#&##+#&####&#O##&##O#&#",
"OO##+@OOO#@O#O#OO#O#O+###O@#@@OO#OOO##OOOO#OOO##@OO##OOO@#@O@@#+O##+OO+##OO##+OO#@#O@##OOO#OOO+#+OO##OOO##",
"OoO#+OX+##O.##+OX##+oo##+XO##OXO##OX##+OX##+oo##OoO##OXO##OXO##OX##Ooo##+XO##OXO##OX+##OX##+O.##OOX##OXO##",
"O+==%++;=#O#:=+O#:&#O&,&+O*:#+O==%OO:=#O+:*#O&:&++&:%+O=:#OO;=#O#:*#O#:*#O#:&#O=:#OO=:#++;=#O#,*#O%:&+O&:%",
"+#::%##:=##%,=##&<&##=:&##=:&##:;###:=##&,*+@&:&##=:&##;;###,=#+%:*#+&<&##=:&##=:#+#:=##&:=%#$<&+#&<&##=:&",
"#+###O##&#O#%#++####+####O###O####O####O######$#++###++###+#%##+####+###OO###O@###O####+#%##O###@O####O###",
"OOOOOOO##OOO##OOOO#OOO+#OOOO@@OO#OOOO++OOO+#OO##+OO#OOOO#OOO#+#OO#OOOO###OOO@@OO###OO+OOOO##OO##@OOO#@OO@#",
"OX+##O.###oX###oo&#OXO%#OXO%#OX@##OX###oo###XX&#OXO##OX+#OOX###oX###Xo#%OXO%#@XO##+.###O.###O.%%#Xo##@XO%#",
"O#:,%##,:###<=#O&<&#O*<*+#;,&@#::%##<;#+%<=##&<&#+=<&##:,%##,:#O#<=#+&<=##=<&##=,&##::%+&<:#+&<;##*<&##=<&",
"+#==###=*###;&#+&;&##&=###==$@#==#+#=*##%;&#O&:$##*=###==###=&###:&##&=&O#&=&@#==%##==##%=&###=&##&=&@#==&",
"#################$####$#############$####$######+#######$########$##@#$####$#@#$$#@#$#####$#@#$###########",
"%#$&&$$$$$$$$$$$$$$$#$$$$$$$$$$$$$$$$$#$$$$$$$$$#&$$$&#$$$$$$$$$$$$$$$$$$$$$$$$$$$$$$$$$$$$$$$$$##$&&$$$$$",
"..........................................................................................................",
"                                                                                                          "
};
