/* XPM */
static char *titleAB[] = {
/* columns rows colors chars-per-pixel */
"106 20 60 1 ",
"  c #858586",
". c #868687",
"X c #8B8B8B",
"o c #8C8C8D",
"O c #8E8E90",
"+ c #919192",
"@ c #939395",
"# c #949496",
"$ c #969698",
"% c #98989A",
"& c #99999B",
"* c #9D9D9F",
"= c #9F9FA1",
"- c #A0A0A2",
"; c #A2A2A5",
": c #A3A3A5",
"> c #A6A6A8",
", c #A8A8AB",
"< c #AAAAAD",
"1 c #ADADAF",
"2 c #AEAEB1",
"3 c #B0B0B2",
"4 c #B3B3B6",
"5 c #B3B3B7",
"6 c #B7B7B9",
"7 c #B8B8BB",
"8 c #B9B9BC",
"9 c #BCBCBF",
"0 c #BCBCC0",
"q c #BDBDC0",
"w c #BFBFC3",
"e c #C0C0C3",
"r c #C0C0C4",
"t c #C4C4C6",
"y c #C4C4C8",
"u c #C6C6CA",
"i c #C7C7CC",
"p c #C8C8CB",
"a c #C8C8CD",
"s c #CDCDCF",
"d c #CCCCD0",
"f c #CFCFD2",
"g c #D1D1D2",
"h c #D1D1D4",
"j c #D4D4D7",
"k c #D4D4D8",
"l c #D5D5D8",
"z c #D8D8DB",
"x c #DBDBDE",
"c c #DCDCDF",
"v c #DFDFE1",
"b c #E0E0E2",
"n c #E2E2E4",
"m c #E5E5E6",
"M c #E7E7E9",
"N c #E8E8EA",
"B c #EAEAEC",
"V c #EDEDEE",
"C c #EFEFF0",
"Z c #F0F0F1",
/* pixels */
"uuuuuuuuuuuuuuuuuuuuuuuuuuuuuuuuuuuuuuuuuuuuuuuuuuuuuuuuuuuuuuuuuuuuuuuuuuuuuuuuuuuuuuuuuuuuuuuuuuuuuuuuuu",
"uuuuuuuuuuuuuuuuuuuuuuuuuuuuuuuuuuuuuuuuuuuuuuuuuuuuuuuuuuuuuuuuuuuuuuuuuuuuuuuuuuuuuuuuuuuuuuuuuuuuuuuuuu",
"uauuuuauuuuauuuaapuuaauuuauuuuauuuuauuuuauuuuauuuaauuuauuuuauuuuauuuaauuuuauuuaauuupauuuauuupauuuaauuuuauu",
"u>4uir;8uaq-quu6;eua2,uuu,2uuu;6uuq-qua8;rua4>riu1<uuu;4uur;8uaq;qua6;rua2,uuu,2uuu;6uaq-9ua8;rua4;uuu1<uu",
"u$6jur@thu8@ffu2&jau;;luu&3lut#9huq+aga4#gsu,*zau=<luu$6jur@thu8#ffu2&lap;;jau&3lur#9haq+agu5#hau<*jau-,lu",
"uummuuuBcuuaZluuhZfuuzZauubNuuuNvuuaVxuufCguujZauucBuuummuuuBbuuaVhuuhCfuuzVauubNuuuMbuuaVzuufZhuujCauucVu",
"uuuuuuuuuuuuuuuuuauuuuuuuuupuuuaauuuuuuuuauuuuuuuuuuuuuauuuuuuuuuauuuuauuuuauuuuauuuauuuuuauuuauuuuupuuuau",
"uuuuuuuuuuuuuuuuuuuuuuuuuuuuuuuuuuuuuuuuuuuuuuuuuuuuuuuuuuuuuuuuuuuuuuuuuuuuuuuuuuuuuuuuuuuuuuuuuuuuuuuuuu",
"u#,uarO4ia6Oqua2+rua;&uuu&;iur+2auqo6ua4Orua,#uui*=uuu#,aurO5ua7oqaa2+rua;&uuu&;put+2uaqo7ua4orua,#uup*-uu",
"u<avur>lluq>vhu62mfu27muu<tbuu>gxur>xlu8<nfu44mau2qnuu,avur>lxuq>vhu62nfu26mau<tbuu>gxue>xlu8<nfu44mau1qnu",
"uuvxuuanzuufNfuuhmauulmauixvuuabxuusnjuufmfuuhmauulnuuivcuuanluuaMhuuhmauulnauixvuuabzuusnhuufmfuugmauuzbu",
"uuuuuuiuuuuuuuuuuuuuuuuuuiuuuuuuuuuauuuauuuuauuuuuuuuuuuuuuuuuuuuuuuuauuuuuuuuuuuuuauuuuiuuuuuuuuuuuupauuu",
"uqruuuqruuuqruar9uuurquuuqruuuqruuuquuur8uuurquuuqqiuuqrauu8rupuquuurquuuqquuuqruuuqruuuqwuirquuurquuuqquu",
"uo>auq 4au6 qaa<Xuua*@auu+-aurX1au8 8aa3 raa;Oiia$&auuo>aaq 5au6 qua<Xuua=#auu+-aurX2auq 8aa4.raa;ouua&&au",
"u8vmuu8NvurqVhuqrZfu9sCau8zNuu8nbur8NxuqrZhuqiCauqhViu8vMuu8mvurqVguqtCfuqfVau8lNuu8nbur8VxrrwCfuqaZau9hVp",
"uahhuuuhfuaalfuifluuufliuihjuuahhuualfuuazauuglauuhluuuhguuplfuuilfuuflauufliuahjuuulhuualfuualfuuszauugju",
"uuuuuuuuuuuuuuuuuuuuuuuuuuuuuuuuuuuuuuuuuuuuuuuuuuuuuuuuuuuuuuuuuuuuuuuuuuuuuuuuuuuuuuuuuuuuuuuuuuuuuuuuuu",
"aaaiuuauiiuauuuaauiiiauuiiuaauiiuauauuauuauauuuaauauauauauauuaauauuaauauuiiuiiiiauaauaauuauaauuapappupauap",
"8877777777778777777777877777777787778777777788777777777777777777777777777777777777866877777777777777777777",
"XXXXXXXXXXXXXXXXXXXXXXXXXXXXXXXXXXXXXXXXXXXXXXXXXXXXXXXXXXXXXXXXXXXXXXXXXXXXXXXXXXXXXXXXXXXXXXXXXXXXXXXXXX"
};
