/* XPM */
static char * windows_xpm[] = {
"25 25 131 2",
"  	c #D1D1D1",
". 	c #D0D0D0",
"+ 	c #CDCDCD",
"@ 	c #BABABA",
"# 	c #B0B0B0",
"$ 	c #CECECE",
"% 	c #CACACA",
"& 	c #A1A1A1",
"* 	c #868686",
"= 	c #878787",
"- 	c #CCCCCC",
"; 	c #C9C9C9",
"> 	c #8D8D8D",
", 	c #949494",
"' 	c #CBCBCB",
") 	c #C7C7C7",
"! 	c #A0A0A0",
"~ 	c #A7A7A7",
"{ 	c #C2C2C2",
"] 	c #C1C1C1",
"^ 	c #C6C6C6",
"/ 	c #9F9F9F",
"( 	c #ABABAB",
"_ 	c #C8C8C8",
": 	c #ACACAC",
"< 	c #C4C4C4",
"[ 	c #9E9E9E",
"} 	c #AAAAAA",
"| 	c #C5C5C5",
"1 	c #A4A4A4",
"2 	c #A5A5A5",
"3 	c #939393",
"4 	c #8C8C8C",
"5 	c #A3A3A3",
"6 	c #A9A9A9",
"7 	c #717171",
"8 	c #737373",
"9 	c #C0C0C0",
"0 	c #9D9D9D",
"a 	c #BFBFBF",
"b 	c #929292",
"c 	c #7A7A7A",
"d 	c #838383",
"e 	c #BEBEBE",
"f 	c #9C9C9C",
"g 	c #A6A6A6",
"h 	c #919191",
"i 	c #999999",
"j 	c #B8B8B8",
"k 	c #BDBDBD",
"l 	c #9B9B9B",
"m 	c #909090",
"n 	c #9F9F9E",
"o 	c #BBBBBB",
"p 	c #9A9A9A",
"q 	c #969696",
"r 	c #858585",
"s 	c #BCBCBC",
"t 	c #A2A8B3",
"u 	c #949DAE",
"v 	c #959EAE",
"w 	c #7F899D",
"x 	c #768296",
"y 	c #939CAD",
"z 	c #989898",
"A 	c #818181",
"B 	c #BCBCBB",
"C 	c #B9B9BA",
"D 	c #7E8DA6",
"E 	c #4A6D9B",
"F 	c #4D6E9B",
"G 	c #4E6F9B",
"H 	c #4E6F9C",
"I 	c #B9B9B9",
"J 	c #B6B6B6",
"K 	c #B7B8B9",
"L 	c #7E8CA6",
"M 	c #5C779E",
"N 	c #6C81A2",
"O 	c #6B80A2",
"P 	c #B5B6B7",
"Q 	c #7C8BA5",
"R 	c #8E99AD",
"S 	c #B7B9BD",
"T 	c #B6B8BC",
"U 	c #B7B7B7",
"V 	c #B5B5B5",
"W 	c #B4B5B6",
"X 	c #7B8BA5",
"Y 	c #969FAF",
"Z 	c #C3C2C2",
"` 	c #C2C2C1",
" .	c #7B8AA4",
"..	c #B4B4B6",
"+.	c #B2B2B2",
"@.	c #8B8B8B",
"#.	c #979799",
"$.	c #6D7E9B",
"%.	c #969FB0",
"&.	c #C2C1C1",
"*.	c #959EAF",
"=.	c #7A89A4",
"-.	c #B2B2B4",
";.	c #B1B1B1",
">.	c #8A8A8A",
",.	c #89898B",
"'.	c #667997",
").	c #7989A3",
"!.	c #B0B0B2",
"~.	c #AFAFAF",
"{.	c #ACADAE",
"].	c #7787A2",
"^.	c #7888A2",
"/.	c #AEAFB0",
"(.	c #ADADAF",
"_.	c #7887A2",
":.	c #ADADAE",
"<.	c #AEAEAE",
"[.	c #ABACAD",
"}.	c #7786A1",
"|.	c #A9AAAB",
"1.	c #7585A1",
"2.	c #7788A6",
"3.	c #959FB0",
"4.	c #A9A9AA",
"5.	c #8992A3",
"6.	c #7484A0",
"7.	c #7485A0",
"8.	c #A7A8A9",
"9.	c #A6A7A8",
"0.	c #A7A7A8",
"                                                  ",
". . . . . . . . . . . . . . . . . . . . . . . . . ",
"+ @ # # # # # # # # # # # @ + $ $ $ $ $ $ $ $ $ $ ",
"% & * = = = = = = = = = * & % + - - - - - - - - - ",
"; & > , , , , , , , , , > & ; ' ' ' ' ' ' ' ' ' ' ",
") ! ~ { ] ] ] ] ] ] ] { ~ ! ) ; ; ; ; ; ; ; ; ; ; ",
"^ / ( ; _ _ ; ; ; ; ; ; : / ^ _ _ _ _ _ _ _ _ _ _ ",
"< [ } ^ ^ | # 1 2 2 2 2 3 4 5 2 2 1 # | ^ ^ ^ ^ ^ ",
"{ [ 6 < < { 3 7 8 8 8 8 8 8 8 8 8 7 3 { < < < < < ",
"9 0 ~ { { a b c d d d d d d d d d c b a { { { { { ",
"e f g ] 9 e h i j j j j j j j j j i h e 9 9 9 9 9 ",
"k l g a a k m [ 9 a a 9 9 9 9 9 9 n m k a a a a a ",
"o p q 2 2 1 r 0 k k s t u v v v v w x y v v u t s ",
"@ 2 i p p z A 0 s B C D E F F F F G H F F F E D C ",
"@ I j j j J > l @ @ K L M N O O O O O O O N M L K ",
"j j j j j J > p I j P Q R S T T T T T T T S R Q P ",
"U U U U U V > i U U W X Y Z ` ` ` ` ` ` ` Z Y  ...",
"V V V V V +.@.* i i #.$.%.&.] ] ] ] ] ] ] &.*.=.-.",
"+.+.+.+.+.;.z >.>.>.,.'.%.&.] ] ] ] ] ] ] &.*.).!.",
";.;.;.;.;.;.~.~.~.~.{.].*.&.] ] ] ] ] ] ] &.*.^./.",
"~.~.~.~.~.~.~.~.~.~.(._.*.&.] ] ] ] ] ] ] &.*._.:.",
"<.<.<.<.<.<.<.<.<.<.[.}.%.{ &.&.&.&.&.&.&.{ %.}.[.",
": : : : : : : : : : |.1.2.%.3.3.3.3.3.3.3.%.2.1.|.",
"} } } } } } } } } } 4.5.6.7.7.7.7.7.7.7.7.7.6.5.4.",
"6 6 6 6 6 6 6 6 6 6 6 8.9.0.0.0.0.0.0.0.0.0.9.8.6 "};
