/* XPM */
static char * workspacebuttonbg_xpm[] = {
"6 31 30 1",
" 	c #E6DFE6",
".	c #E5DEE5",
"+	c #E4DEE4",
"@	c #E2DCE2",
"#	c #E1DBE1",
"$	c #E0DAE0",
"%	c #DED9DE",
"&	c #DDD8DD",
"*	c #DBD6DB",
"=	c #DAD5DA",
"-	c #D9D4D9",
";	c #D8D2D8",
">	c #D6D1D6",
",	c #D5D0D5",
"'	c #D4CFD4",
")	c #D2CDD2",
"!	c #D1CCD1",
"~	c #D0CBD0",
"{	c #CECACE",
"]	c #CDC9CD",
"^	c #CCC8CC",
"/	c #CAC7CA",
"(	c #CAC6CA",
"_	c #C9C5C9",
":	c #C7C4C7",
"<	c #C6C3C6",
"[	c #C5C2C5",
"}	c #C4C1C4",
"|	c #C2BFC2",
"1	c #C1BEC1",
"      ",
"......",
"++++++",
"@@@@@@",
"######",
"$$$$$$",
"%%%%%%",
"&&&&&&",
"&&&&&&",
"******",
"======",
"------",
";;;;;;",
">>>>>>",
",,,,,,",
"''''''",
"))))))",
"!!!!!!",
"~~~~~~",
"{{{{{{",
"]]]]]]",
"^^^^^^",
"//////",
"((((((",
"______",
"::::::",
"<<<<<<",
"[[[[[[",
"}}}}}}",
"||||||",
"111111"};
