/* XPM */
static char * start_xpm[] = {
"45 32 2 1",
" 	c #E5E5E5",
".	c #325685",
"                                             ",
"                                             ",
"                                             ",
"                                             ",
"                                             ",
"                                             ",
"             ........    ........            ",
"             ........    ........            ",
"             ........    ........            ",
"             ........    ........            ",
"             ........    ........            ",
"             ........    ........            ",
"             ........    ........            ",
"             ........    ........            ",
"                                             ",
"                                             ",
"                                             ",
"                                             ",
"             ........    ........            ",
"             ........    ........            ",
"             ........    ........            ",
"             ........    ........            ",
"             ........    ........            ",
"             ........    ........            ",
"             ........    ........            ",
"             ........    ........            ",
"                                             ",
"                                             ",
"                                             ",
"                                             ",
"                                             ",
"                                             "};
